<svg width="16" height="16" viewBox="0 0 16 16" fill="none" xmlns="http://www.w3.org/2000/svg">
<path d="M0.452148 5.33706H15.5479C14.4966 2.34699 11.7221 0.170038 8.41717 0H7.58286C4.27797 0.170038 1.50341 2.34699 0.452148 5.33706Z" fill="#060808"/>
<path d="M0 7.99471C0 8.93433 0.162275 9.83629 0.45978 10.6741H15.5402C15.8377 9.83629 16 8.93492 16 7.99471C16 7.06274 15.8407 6.16843 15.5479 5.33707H0.452136C0.159336 6.16843 0 7.06274 0 7.99471Z" fill="#E52522"/>
<path d="M7.9997 16C11.4786 16 14.4384 13.7771 15.5396 10.6735H0.459778C1.56102 13.7777 4.52078 16 7.9997 16Z" fill="#FFDC0A"/>
</svg>
