<svg width="16" height="16" viewBox="0 0 16 16" fill="none" xmlns="http://www.w3.org/2000/svg">
<path d="M0.072876 9.09357C0.443873 11.849 2.21361 14.1592 4.64245 15.2857V9.09357H0.072876Z" fill="#E52522"/>
<path d="M15.92 6.8823C15.372 2.99213 12.0348 0 7.99967 0C7.60927 0 7.22592 0.0282665 6.85022 0.0824439V6.8823H15.92Z" fill="#E52522"/>
<path d="M4.64246 0.738464C2.22773 1.85794 0.465042 4.14811 0.0793457 6.8823H4.64246V0.738464Z" fill="#E52522"/>
<path d="M15.9271 9.09357H6.85083V15.9417C7.0231 15.9664 7.19713 15.9865 7.37235 16H8.62763C12.3929 15.7073 15.4267 12.803 15.9271 9.09357Z" fill="#E52522"/>
<path d="M6.85081 6.88228V0.082428C6.07295 0.194316 5.33154 0.418683 4.64246 0.737858V6.88169H6.85081V6.88228Z" fill="white"/>
<path d="M4.64246 9.09357V15.2857C5.33095 15.6049 6.07295 15.8292 6.85081 15.9411V9.09357H4.64246Z" fill="white"/>
<path d="M6.85083 9.09357H15.9271C15.9747 8.73965 16 8.37866 16 8.01178C16 7.62842 15.9723 7.25094 15.9206 6.88171H6.85083V9.09357Z" fill="white"/>
<path d="M4.64248 6.88229H0.0793738C0.0270459 7.25152 0 7.62841 0 8.01236C0 8.37924 0.025282 8.74023 0.0729063 9.09415H4.64248V6.88229Z" fill="white"/>
<path d="M6.85081 6.88229H4.64246V9.09356H6.85081V6.88229Z" fill="white"/>
</svg>
