<?xml version="1.0" encoding="UTF-8"?><!DOCTYPE svg PUBLIC "-//W3C//DTD SVG 1.1//EN" "http://www.w3.org/Graphics/SVG/1.1/DTD/svg11.dtd"><svg xmlns="http://www.w3.org/2000/svg" xmlns:x="&amp;ns_extend;" xmlns:i="&amp;ns_ai;" xmlns:graph="&amp;ns_graphs;" xmlns:xlink="http://www.w3.org/1999/xlink" xmlns:a="http://ns.adobe.com/AdobeSVGViewerExtensions/3.0/"><symbol id="icon-arrow" viewBox="0 0 256 512">
    <path d="M119.5 326.9L3.5 209.1c-4.7-4.7-4.7-12.3 0-17l7.1-7.1c4.7-4.7 12.3-4.7 17 0L128 
287.3l100.4-102.2c4.7-4.7 12.3-4.7 17 0l7.1 7.1c4.7 4.7 4.7 12.3 0 17L136.5 327c-4.7 4.6-12.3 4.6-17-.1z"/>
</symbol><symbol id="icon-box" viewBox="0 0 18 20">
<g>
				<path d="M17.6,9.4C17.9,9.1,18,8.8,18,8.4c0-0.4-0.1-0.7-0.4-0.9l-0.1-0.1L17,7.1l0.5-0.3l0.1-0.1
					C17.9,6.4,18,6.1,18,5.8c0-0.4-0.1-0.7-0.4-0.9l-0.1-0.1L9.9,0.3c-0.5-0.4-1.3-0.4-1.8,0L0.5,4.7l-0.1,0L0.4,4.8
					c-0.5,0.5-0.5,1.4,0,1.9l0,0L1,7.1L0.4,7.5L0.4,7.5c-0.5,0.5-0.5,1.4,0,1.9l0,0L1,9.8l-0.5,0.3l-0.1,0.1c-0.5,0.5-0.5,1.3,0,1.9
					l0,0L1,12.4l-0.6,0.3l-0.1,0.1c-0.5,0.5-0.5,1.3,0,1.9l0,0l7.7,5C8.4,19.9,8.7,20,9,20c0.3,0,0.7-0.1,0.9-0.3l7.6-4.9l0.1-0.1
					c0.3-0.2,0.4-0.6,0.4-0.9c0-0.4-0.1-0.7-0.4-0.9l-0.1-0.1L17,12.4l0.5-0.3l0.1-0.1c0.3-0.2,0.4-0.6,0.4-0.9
					c0-0.4-0.1-0.7-0.4-0.9l-0.1-0.1L17,9.8L17.6,9.4L17.6,9.4z M8.9,1.3L8.9,1.3C9,1.2,9,1.2,9.1,1.2l0.1,0.1l7.6,4.4c0,0,0,0,0,0
					c0,0,0,0,0,0l-7.6,4.9l-0.1,0.1c0,0-0.1,0-0.1,0l0,0L1.3,5.8c0,0,0,0,0-0.1L8.9,1.3z M8.1,11.7C8.4,11.9,8.7,12,9,12
					c0.3,0,0.7-0.1,0.9-0.3l5.9-3.8l0.9,0.5c0,0,0,0,0,0c0,0,0,0,0,0l-7.6,4.9l-0.1,0.1c0,0-0.1,0-0.1,0l0,0L1.3,8.5
					c0,0,0-0.1,0-0.1l0.9-0.5L8.1,11.7z M16.8,13.7C16.8,13.7,16.8,13.7,16.8,13.7C16.8,13.7,16.8,13.8,16.8,13.7l-7.6,5l-0.1,0.1
					c0,0-0.1,0-0.1,0l0,0l-7.6-4.9c0,0,0,0,0-0.1l0.9-0.5L8.1,17c0.2,0.2,0.6,0.3,0.9,0.3c0.3,0,0.7-0.1,0.9-0.3l5.9-3.8L16.8,13.7z
					 M16.8,11C16.8,11,16.8,11.1,16.8,11C16.8,11.1,16.8,11.1,16.8,11l-7.6,5l-0.1,0.1c0,0-0.1,0-0.1,0l0,0l-7.6-4.9c0,0,0,0,0-0.1
					l0.9-0.5l6,3.9c0.2,0.2,0.6,0.3,0.9,0.3c0.3,0,0.7-0.1,0.9-0.3l6-3.9L16.8,11z"/>
			</g>
</symbol><symbol id="icon-camera" viewBox="0 0 20 18">
<path fill="#FFFFFF" d="M10,5c-2.7600098,0-5,2.2399902-5,5s2.2399902,5,5,5s5-2.2399902,5-5S12.7600098,5,10,5z M10,13
	c-1.6500244,0-3-1.3500366-3-3c0-1.6500244,1.3499756-3,3-3s3,1.3499756,3,3C13,11.6499634,11.6500244,13,10,13z M18,2h-3.1699829
	L13,0H7L5.1699829,2H2C0.9000244,2,0,2.8999634,0,4v12c0,1.0999756,0.9000244,2,2,2h16c1.0999756,0,2-0.9000244,2-2V4
	C20,2.8999634,19.0999756,2,18,2z M18,16H2V4h4.0499878l1.8300171-2h4.2399902l1.8300171,2H18V16z"/>
</symbol><symbol id="icon-cancel" viewBox="0 0 16 16">
<polygon fill-rule="evenodd" clip-rule="evenodd" points="16,0.6574707 15.2578297,0.001709 7.9999695,7.2990723 
	0.7420484,0.001709 0,0.6574707 7.3028398,8 0,15.3425903 0.7420484,15.998291 7.9999695,8.7009277 15.2578297,15.998291 
	16,15.3425903 8.6970987,8 "/>
</symbol><symbol id="icon-comment" viewBox="0 0 15 13">
<g>
				<path fill-rule="evenodd" clip-rule="evenodd" d="M7.5,0C3.3,0,0,2.4,0,5.5c0,1.7,1,3.3,2.8,4.3l-0.9,1.9
					c-0.2,0.3-0.1,0.7,0.2,1C2.2,12.9,2.4,13,2.6,13c0.1,0,0.2,0,0.4-0.1L7.1,11c0.1,0,0.3,0,0.4,0c4.2,0,7.5-2.4,7.5-5.5
					C15,2.4,11.7,0,7.5,0z M7.5,9.2c-0.1,0-0.3,0-0.4,0c-0.2,0-0.3,0-0.5,0.1l-1.9,0.9l0.4-1.3C4.8,8.8,4.5,8.7,4.3,8.5
					C2.7,7.8,1.7,6.7,1.7,5.5c0-2,2.6-3.7,5.8-3.7c3.1,0,5.8,1.7,5.8,3.7C13.3,7.5,10.6,9.2,7.5,9.2z"/>
			</g>
</symbol><symbol id="icon-copy" viewBox="0 0 470.333 470.333">
<g>
	<g>
		<path d="M333.483,0h-194.65c-9.35,0-17,7.65-17,17v73.667H48.167c-9.35,0-17,7.65-17,17v345.667c0,9.35,7.65,17,17,17h286.167
			c9.35,0,17-7.65,17-17v-76.5h70.833c9.35,0,17-7.65,17-17V106.25c0-4.533-1.7-8.783-4.817-11.9L345.667,5.1
			C342.55,1.7,338.017,0,333.483,0z M317.333,436.333H65.167V124.667h56.667v235.167c0,9.35,7.65,17,17,17h178.5V436.333z
			 M155.833,342.833V34h147.333v96.333c0,9.35,7.65,17,17,17h85v195.5H155.833z M405.167,113.333h-68V44.767L405.167,113.333
			L405.167,113.333z"/>
	</g>
</g>
<g>
</g>
<g>
</g>
<g>
</g>
<g>
</g>
<g>
</g>
<g>
</g>
<g>
</g>
<g>
</g>
<g>
</g>
<g>
</g>
<g>
</g>
<g>
</g>
<g>
</g>
<g>
</g>
<g>
</g>
</symbol><symbol id="icon-cup" viewBox="0 0 20 20">
<path fill="#d34007" d="M17.0010071,0c-1.5490112,0-2.6149902,1.5859985-2.9100342,3H5.9079895
	C5.6130066,1.5859985,4.5480042,0,3.0010071,0h-3l-0.0020142,6.75c0,2.1619873,1.3579712,6.25,6.5,6.25
	c0.2379761,0,0.4940186-0.0130005,0.7479858-0.0410156C7.8529968,13.3739624,8.4620056,13.7299805,9.0010071,14v3
	c-2,1-5,1.3429565-5,3h12c0-1.6570435-3-2-5-3v-3c0.5379639-0.2700195,1.1480103-0.6260376,1.7529907-1.0410156
	C13.0069885,12.9869995,13.2619934,13,13.4989929,13c5.1420288,0,6.5-4.0880127,6.5-6.25L20.0010071,0H17.0010071z M1.9989929,6.75
	L2.0010071,2h1c0.3919678,0,0.9979858,1.0629883,0.9979858,1.75V5h0.0020142v3c0,1.0620117,0.3809814,1.9949951,0.9559937,2.8049927
	C2.0989685,10.0280151,1.9989929,7.1259766,1.9989929,6.75z M13.9969788,8.0119629
	c-0.0029907,0.519043-0.1329956,1.0560303-0.5219727,1.5450439c-1.4769897,1.8549805-3.4760132,2.7069702-3.4760132,2.7069702
	s-1.9990234-0.8519897-3.4760132-2.7069702c-0.3889771-0.4890137-0.5189819-1.026001-0.5219727-1.5450439V5h7.9959717V8.0119629z
	 M17.9989929,6.75c0,0.3759766-0.0999756,3.2789917-2.9539795,4.0559692C15.6199646,9.9949951,16.0010071,9.0620117,16.0010071,8
	V4.5V3.7299805C16.0119934,3.0429688,16.6109924,2,17.0010071,2h1L17.9989929,6.75z"/>
</symbol><symbol id="icon-dots" viewBox="0 0 20 4">
<path fill-rule="evenodd" clip-rule="evenodd" d="M3.9999084,2c0,1.1044922-0.8953857,1.9998779-1.9998779,1.9998779
	c-1.1046143,0-2.000061-0.8953857-2.000061-1.9998779c0-1.1046143,0.8954468-1.9998779,2.000061-1.9998779
	C3.1045227,0.0001221,3.9999084,0.8953857,3.9999084,2z M10.0000305,0.0001221C8.8954163,0.0001221,7.9999084,0.8953857,7.9999084,2
	c0,1.1044922,0.8955078,1.9998779,2.0001221,1.9998779c1.1044922,0,2-0.8953857,2-1.9998779
	C12.0000305,0.8953857,11.1045227,0.0001221,10.0000305,0.0001221z M17.9999084,0.0001221
	c-1.1044922,0-1.9998779,0.8952637-1.9998779,1.9998779c0,1.1044922,0.8953857,1.9998779,1.9998779,1.9998779
	c1.1046143,0,2.0001221-0.8953857,2.0001221-1.9998779C20.0000305,0.8953857,19.1045227,0.0001221,17.9999084,0.0001221z"/>
</symbol><symbol id="icon-facebook-o" viewBox="0 0 96.124 96.123">
<g>
	<path d="M72.089,0.02L59.624,0C45.62,0,36.57,9.285,36.57,23.656v10.907H24.037c-1.083,0-1.96,0.878-1.96,1.961v15.803
		c0,1.083,0.878,1.96,1.96,1.96h12.533v39.876c0,1.083,0.877,1.96,1.96,1.96h16.352c1.083,0,1.96-0.878,1.96-1.96V54.287h14.654
		c1.083,0,1.96-0.877,1.96-1.96l0.006-15.803c0-0.52-0.207-1.018-0.574-1.386c-0.367-0.368-0.867-0.575-1.387-0.575H56.842v-9.246
		c0-4.444,1.059-6.7,6.848-6.7l8.397-0.003c1.082,0,1.959-0.878,1.959-1.96V1.98C74.046,0.899,73.17,0.022,72.089,0.02z"/>
</g>
<g>
</g>
<g>
</g>
<g>
</g>
<g>
</g>
<g>
</g>
<g>
</g>
<g>
</g>
<g>
</g>
<g>
</g>
<g>
</g>
<g>
</g>
<g>
</g>
<g>
</g>
<g>
</g>
<g>
</g>
</symbol><symbol id="icon-facebook" viewBox="0 0 18 18">
<g>
				<path style="fill-rule:evenodd;clip-rule:evenodd;" d="M17.0150757,0.0053711H1.0028687
					c-0.5487061,0-0.9934082,0.4446411-0.9934082,0.9934082v16.012207c0,0.548584,0.4447021,0.9934082,0.9934082,0.9934082
					h8.6204834v-6.9702148H7.277771V8.3178101h2.3455811V6.3145752c0-2.3247681,1.4197388-3.5905151,3.4937134-3.5905151
					c0.9933472,0,1.847229,0.0737915,2.0960693,0.1069946V5.260376l-1.4385376,0.0006714
					c-1.1277466,0-1.3461304,0.5360718-1.3461304,1.3225098v1.7342529h2.6899414l-0.3503418,2.7163696h-2.3395996v6.9702148
					h4.5866089c0.548584,0,0.9933472-0.4448242,0.9933472-0.9934082V0.9987793
					C18.0084229,0.4500122,17.5636597,0.0053711,17.0150757,0.0053711z"/>
			</g>
</symbol><symbol id="icon-frame" viewBox="0 0 10 10">
<path fill="#FFFFFF" d="M9.264679-0.0003052H0.73526c-0.4052734,0-0.7350464,0.3300781-0.7350464,0.7354736v8.5289917
	c0,0.4064331,0.3297729,0.736145,0.7350464,0.736145H9.264679c0.4055786,0,0.7351074-0.3297119,0.7351074-0.736145V0.7351685
	C9.9997864,0.3297729,9.6702576-0.0003052,9.264679-0.0003052z M8.9929504,8.9924927H1.0071716V1.006897h7.9857788V8.9924927z
	 M2.4411926,8h5.1177979c0.243103,0,0.4411621-0.1984253,0.4411621-0.4415283V2.4411621
	c0-0.2432861-0.1980591-0.4414673-0.4411621-0.4414673H2.4411926c-0.243103,0-0.4411011,0.1981812-0.4411011,0.4414673v5.1173096
	C2.0000916,7.8015747,2.1980896,8,2.4411926,8z M3.0002747,2.9998779h4.0001221v4H3.0002747V2.9998779z"/>
</symbol><symbol id="icon-google" viewBox="0 0 512 512">
<path d="M113.47,309.408L95.648,375.94l-65.139,1.378C11.042,341.211,0,299.9,0,256
	c0-42.451,10.324-82.483,28.624-117.732h0.014l57.992,10.632l25.404,57.644c-5.317,15.501-8.215,32.141-8.215,49.456
	C103.821,274.792,107.225,292.797,113.47,309.408z"/>
<path d="M507.527,208.176C510.467,223.662,512,239.655,512,256c0,18.328-1.927,36.206-5.598,53.451
	c-12.462,58.683-45.025,109.925-90.134,146.187l-0.014-0.014l-73.044-3.727l-10.338-64.535
	c29.932-17.554,53.324-45.025,65.646-77.911h-136.89V208.176h138.887L507.527,208.176L507.527,208.176z"/>
<path d="M416.253,455.624l0.014,0.014C372.396,490.901,316.666,512,256,512
	c-97.491,0-182.252-54.491-225.491-134.681l82.961-67.91c21.619,57.698,77.278,98.771,142.53,98.771
	c28.047,0,54.323-7.582,76.87-20.818L416.253,455.624z"/>
<path d="M419.404,58.936l-82.933,67.896c-23.335-14.586-50.919-23.012-80.471-23.012
	c-66.729,0-123.429,42.957-143.965,102.724l-83.397-68.276h-0.014C71.23,56.123,157.06,0,256,0
	C318.115,0,375.068,22.126,419.404,58.936z"/>
</symbol><symbol id="icon-heart" viewBox="0 0 15 12">
<g>
				<path fill-rule="evenodd" clip-rule="evenodd" d="M13.6,1c-0.8-0.6-1.8-1-2.9-1C9.6,0,8.5,0.4,7.6,1
					C6.5,0.1,4.7-0.2,3.3,0.1C1.3,0.6,0,2.1,0,4.1C0,7.7,5.7,12,7.5,12C9.3,12,15,7.7,15,4.1C15,2.8,14.5,1.7,13.6,1z M7.5,10
					C6.5,9.7,2,6.4,2,4.1c0-1.3,0.9-1.8,1.7-2C4,2,4.2,2,4.5,2c0.7,0,1.5,0.2,1.9,0.6C6,3.2,5.9,3.9,5.9,4.6h2C7.9,2.8,9.4,2,10.7,2
					c0.6,0,1.2,0.2,1.6,0.5C12.7,2.9,13,3.4,13,4.1C13,6.4,8.5,9.7,7.5,10z"/>
			</g>
</symbol><symbol id="icon-home" viewBox="0 0 16 16">
<g>
				<path fill-rule="evenodd" clip-rule="evenodd" d="M15.4,6.2L15.4,6.2l-0.1-0.1l-1.4-1V2.8c0-1-0.8-1.8-1.8-1.8
					h-1.2C10.4,1,10,1.2,9.6,1.5L8.9,0.8L8,0L7.2,0.7L0.7,6.2l0,0l0,0C0,6.9,0,7.6,0,7.9v1.3l1.3,0h0.2v4.9c0,1,0.8,1.8,1.8,1.8h4.4
					v-4.1h0.5V16h4.4c1,0,1.8-0.8,1.8-1.8V9.3H16V7.9C16,7.6,16,6.9,15.4,6.2z M12.7,7.9c0.3,0,0.5,0.2,0.5,0.5v5.7
					c0,0.3-0.2,0.5-0.5,0.5H9.5v-3.6c0-0.3-0.2-0.5-0.5-0.5H7c-0.3,0-0.5,0.2-0.5,0.5v3.6H3.3c-0.3,0-0.5-0.2-0.5-0.5V8.5
					c0-0.3,0.2-0.5,0.5-0.5h-2c0-0.3,0-0.5,0.3-0.8L8,1.7l2.3,2.1l0-1c0-0.3,0.2-0.5,0.5-0.5h1.2c0.3,0,0.5,0.2,0.5,0.5v2.9l1.9,1.4
					c0.3,0.3,0.3,0.5,0.3,0.8H12.7z"/>
			</g>
</symbol><symbol id="icon-home_b" viewBox="0 0 16 16">
<style type="text/css">
	.st0{fill:#D24327;}
</style>
<path class="st0" d="M15.3623047,6.2495117l-0.0649414-0.0649414l-0.0727539-0.0554199L8.0234375,0L0.7202148,6.1728516
	L0.6777344,6.2087402L0.6386719,6.248291C0,6.8896484,0,7.5783691,0,7.9484863v1.3051758l2,0.0021973v4.9199219
	C2,15.1816406,2.8144531,16,3.8149414,16h8.3696289C13.1855469,16,14,15.1816406,14,14.1757813V9.2558594h2V7.9506836
	C16,7.5805664,16,6.8913574,15.3623047,6.2495117z M14,7.7558594h-1.5v1.5v4.9199219
	C12.5,14.3544922,12.3583984,14.5,12.1845703,14.5H3.8149414C3.644043,14.5,3.5,14.3515625,3.5,14.1757813V9.2558594v-1.498291
	l-1.4985352-0.001709L1.5039063,7.7553711C1.5151367,7.5788574,1.5546875,7.4570313,1.6977539,7.310791l6.3222656-5.3439941
	l6.2324219,5.3046875l0.0307617,0.0263672l0.0244141,0.0183105c0.1381836,0.1428223,0.1772461,0.263916,0.1884766,0.4396973H14z"/>
</symbol><symbol id="icon-instagram" viewBox="0 0 20 20">
<g>
				<path fill-rule="evenodd" d="M9.988,12.014 C8.884,12.014 7.986,11.113 7.986,10.005 C7.986,8.897 8.884,7.995 9.988,7.995 C11.092,7.995 11.990,8.897 11.990,10.005 C11.990,11.113 
11.092,12.014 9.988,12.014 ZM20.010,4.699 L20.010,6.011 L16.590,6.011 L12.860,6.011 C12.084,5.490 11.136,5.183 10.113,5.183 C9.090,5.183 8.142,5.490 
7.366,6.011 L0.011,6.011 L-0.000,4.729 C-0.000,2.133 2.244,-0.000 5.000,-0.000 L15.012,-0.009 C17.768,-0.009 20.010,2.103 20.010,4.699 ZM17.005,2.575 
C17.005,2.250 16.739,1.984 16.413,1.984 L14.583,1.984 C14.257,1.984 13.990,2.250 13.990,2.575 L13.990,4.400 C13.990,4.725 14.257,4.991 14.583,4.991 
L16.413,4.991 C16.739,4.991 17.005,4.725 17.005,4.400 L17.005,2.575 ZM14.861,10.052 C14.861,12.701 12.731,14.855 10.113,14.855 C7.495,14.855 5.366,12.701 
5.366,10.052 C5.366,9.323 5.711,8.620 6.000,8.000 L-0.000,8.000 L0.011,14.933 C0.011,17.721 2.253,19.990 5.009,19.990 L15.012,19.990 C17.768,19.990 
20.010,17.721 20.010,14.933 L20.000,8.000 L14.000,8.000 C14.289,8.620 14.861,9.323 14.861,10.052 Z"/>
			</g>
</symbol><symbol id="icon-lock" viewBox="0 0 13 17">
<g>
				<path fill-rule="evenodd" clip-rule="evenodd" d="M12.2,6.9V5.4C12.2,2.5,9.6,0,6.5,0C3.4,0,0.8,2.5,0.8,5.4v1.4
					C0.3,7,0,7.5,0,8v7.8C0,16.4,0.6,17,1.4,17h10.3c0.7,0,1.4-0.6,1.4-1.2V8C13,7.5,12.7,7,12.2,6.9z M2.4,5.4
					c0-2.1,1.9-3.9,4.1-3.9c2.2,0,4.1,1.8,4.1,3.9v1.3H2.4V5.4z M11.4,15.5H1.6V8.3h9.8V15.5z M4.6,14.8C4.7,15,4.9,15,5.2,15h0
					l2.7,0c0.2,0,0.4-0.1,0.6-0.2c0.2-0.1,0.2-0.3,0.2-0.5c0-0.7-0.3-1.4-0.6-1.8c0.2-0.3,0.3-0.6,0.3-0.9c0-1-0.9-1.7-1.9-1.7
					c-1.1,0-1.9,0.8-1.9,1.8c0,0.3,0.1,0.7,0.3,0.9c-0.2,0.5-0.5,1.1-0.5,1.8C4.4,14.5,4.4,14.7,4.6,14.8z M6.5,11.3
					c0.2,0,0.3,0.1,0.3,0.2c0,0.1-0.1,0.2-0.1,0.2c-0.1,0.1-0.1,0.1-0.2,0.2c0-0.1-0.1-0.1-0.2-0.2c0,0-0.1-0.1-0.1-0.2
					C6.2,11.4,6.4,11.3,6.5,11.3z M6.4,13c0-0.1,0.1-0.2,0.1-0.3c0,0.1,0.1,0.2,0.1,0.3c0.1,0.1,0.2,0.3,0.2,0.5l-0.7,0
					C6.2,13.3,6.3,13.2,6.4,13z"/>
			</g>
</symbol><symbol id="icon-mail-2" viewBox="0 0 16 12">
<path fill-rule="evenodd" d="M15.107,4.605 C13.155,5.867 11.672,6.847 10.661,7.546 C10.321,7.784 10.046,7.971 9.835,8.104 C9.623,8.238 9.342,8.374 8.991,8.513 C8.640,8.652 8.312,8.722 8.009,8.722 L8.000,8.722 L7.991,8.722 C7.687,8.722 7.360,8.652 7.009,8.513 C6.658,8.374 6.376,8.238 6.165,8.104 C5.954,7.971 5.679,7.784 5.339,7.546 C4.536,6.983 3.056,6.003 0.902,4.605 C0.562,4.390 0.262,4.142 -0.000,3.864 L-0.000,10.631 C-0.000,11.006 0.140,11.327 0.420,11.594 C0.699,11.861 1.036,11.995 1.428,11.995 L14.571,11.995 C14.964,11.995 15.300,11.861 15.580,11.594 C15.860,11.327 16.000,11.006 16.000,10.631 L16.000,3.864 C15.744,4.137 15.446,4.384 15.107,4.605 L15.107,4.605 ZM15.576,0.395 C15.293,0.128 14.958,-0.005 14.571,-0.005 L1.428,-0.005 C0.970,-0.005 0.617,0.142 0.370,0.438 C0.123,0.733 -0.000,1.103 -0.000,1.546 C-0.000,1.904 0.164,2.292 0.491,2.709 C0.818,3.127 1.167,3.455 1.536,3.694 C1.738,3.830 2.348,4.235 3.366,4.908 C4.384,5.581 5.164,6.100 5.705,6.463 C5.765,6.503 5.891,6.590 6.085,6.723 C6.278,6.857 6.439,6.965 6.567,7.047 C6.695,7.130 6.850,7.222 7.031,7.324 C7.213,7.426 7.384,7.503 7.545,7.554 C7.705,7.605 7.854,7.631 7.991,7.631 L8.000,7.631 L8.009,7.631 C8.146,7.631 8.295,7.605 8.455,7.554 C8.616,7.503 8.787,7.426 8.969,7.324 C9.150,7.222 9.305,7.130 9.433,7.047 C9.561,6.965 9.722,6.857 9.915,6.723 C10.108,6.590 10.235,6.503 10.295,6.463 C10.842,6.100 12.235,5.176 14.473,3.694 C14.908,3.404 15.271,3.054 15.562,2.645 C15.854,2.236 16.000,1.807 16.000,1.358 C16.000,0.983 15.858,0.662 15.576,0.395 Z"/>
</symbol><symbol id="icon-mail" viewBox="0 0 15 14">
<g>
				<path fill-rule="evenodd" clip-rule="evenodd" d="M14.1,3.9L7.8,0.1C7.6,0,7.4,0,7.2,0.1L0.9,3.9
					C0.4,4,0,4.5,0,5v7.8C0,13.5,0.5,14,1.1,14h12.8c0.6,0,1.1-0.5,1.1-1.1V5C15,4.5,14.6,4,14.1,3.9z M5.1,9.1l-3.8,2.8V6.3
					C2.1,6.8,3.3,7.7,5.1,9.1z M6.2,10c0.3,0.2,0.6,0.4,0.9,0.7l0.4-0.6l0.4,0.5c0.3-0.2,0.6-0.4,0.9-0.7l3.6,2.6H2.7L6.2,10z
					 M9.9,9.1c1.5-1.1,2.9-2.2,3.8-2.8v5.6L9.9,9.1z M7.5,1.5L13.2,5c-0.6,0.4-1.4,1-2.7,2c-1.2,0.9-2.4,1.8-3,2.3
					C4.4,6.9,2.7,5.6,1.8,5L7.5,1.5z"/>
			</g>
</symbol><symbol id="icon-mic" viewBox="0 0 14 19">
<path fill="#FFFFFF" d="M14,9c0,3.5299683-2.6099854,6.4299927-6,6.9199829V19H6v-3.0800171C2.6099854,15.4299927,0,12.5299683,0,9
	h2c0,2.7600098,2.2399902,5,5,5s5-2.2399902,5-5H14z M7,12c1.6599731,0,3-1.3400269,3-3V3c0-1.6600342-1.3400269-3-3-3
	S4,1.3399658,4,3v6C4,10.6599731,5.3400269,12,7,12z"/>
</symbol><symbol id="icon-money" viewBox="0 0 26 28">
<path fill="#4E4DC2" d="M22.6242676,10.4765892c0.1279297,0.059082,0.2695313,0.0917969,0.4189453,0.0917969
	c0.5527344,0,1-0.4477539,1-1c0-0.7197266-0.2832031-1.3764648-0.8193359-1.8994145
	c-0.3037109-0.2963867-0.6796875-0.5375977-1.0957031-0.734375c1.0097656-0.1904297,2.0273438-0.4794922,2.8886719-0.9155273
	c0.4931641-0.2490234,0.6904297-0.8505859,0.4414063-1.34375c-0.25-0.4921875-0.8515625-0.6909177-1.34375-0.4404297
	c-1.3671875,0.6914063-3.3261719,0.9365234-4.7851563,1.019043c0.9511719-1.5620115,1.453125-3.4414063,1.453125-4.2397461
	c0-0.5375976-0.4248047-0.9790038-0.9619141-0.9995117c-2.9785156-0.1118164-4.5390625,0.4331055-5.3662109,0.993164
	c-0.2998047-0.2929687-0.6142578-0.4902343-0.8974609-0.6225585C11.4455566-0.6034892,8.7561035,0.79446,8.4562988,0.9575459
	C8.4338379,0.969753,8.411377,0.9829366,8.3898926,0.9970967C7.4172363,0.6167256,6.795166,0.1982686,6.7854004,0.1914326
	c-0.3056641-0.2119141-0.703125-0.2353516-1.0332031-0.0625C5.4230957,0.3012959,5.217041,0.6426045,5.217041,1.0141865
	c0,1.0395509,0.8525391,3.9145508,2.4384766,5.5317383C3.017334,9.4643822-0.0002441,15.0141869-0.0002441,18.903347
	c0,5.355957,5.3461914,9.0966797,13.0004883,9.0966797s13-3.7407227,13-9.0966797
	C26.0002441,16.4004173,24.7512207,13.2104759,22.6242676,10.4765892z M21.8273926,9.1001244
	c0.1904297,0.1860352,0.2158203,0.3408203,0.2158203,0.4682617c0,0.0786133,0.0087891,0.1552734,0.0263672,0.2290039
	c-0.3554688-0.4145508-0.7314453-0.8149414-1.1259766-1.1977539C21.310791,8.7334251,21.6203613,8.8984642,21.8273926,9.1001244z
	 M11.4123535,3.6054952c0.5527344,0,1-0.4477539,1-1c0-0.199707-0.0585938-0.3862305-0.1601563-0.5424805
	c0.1640625,0.0253906,0.3183594,0.0688477,0.4599609,0.1347656c0.1699219,0.0805664,0.6894531,0.3251953,0.9160156,1.4604492
	c0.1074219,0.5410154,0.6269531,0.8955076,1.1767578,0.7846677c0.5410156-0.1079102,0.8925781-0.6347654,0.7841797-1.1762693
	c-0.0351563-0.1787109-0.0771484-0.3476563-0.125-0.5068359c0.2197266-0.1894531,0.9951172-0.6884766,3.1210938-0.7529297
	c-0.4033203,1.347168-1.3779297,3.3676755-2.4355469,3.6542966c-0.0048828,0.0014648-0.0097656,0.0029297-0.0146484,0.0043945
	h-6.265625c-0.0019531,0-0.0029297,0-0.0048828,0C9.8596191,5.6640887,9.8547363,5.6626239,9.8498535,5.661159
	c-0.84375-0.2290039-1.6347656-1.5615234-2.125-2.7753904C8.717041,3.266628,9.9973145,3.6054952,11.4123535,3.6054952z
	 M13.0002441,26.0000267c-6.4765625,0-11.0004883-2.918457-11.0004883-7.0966797
	c0-3.5390625,3.1694336-8.9575195,7.7504883-11.2446289c0.0390625,0.0043945,0.0791016,0.0068359,0.1191406,0.0068359h6.3935547
	c0.0830078,0.0415039,0.1660156,0.0839844,0.2480469,0.1279297c0.1279297,0.1274414,0.2900391,0.2207036,0.4716797,0.2641606
	c4.1826172,2.4702148,7.0175781,7.4980469,7.0175781,10.8457031C24.0002441,23.0815697,19.4768066,26.0000267,13.0002441,26.0000267
	z M13.5505371,17.9284325c1.298645,0,2.203186-0.2861328,2.7019043-0.8718262C16.7511597,16.470974,17,15.7428246,17,14.8855247
	c0-1.4284058-0.8265991-2.5858154-2.1636353-2.7998047c-0.3150635-0.0576172-0.774292-0.0860596-1.3905029-0.0860596H9.9835815
	v4.7859497H9v1.1428223h0.9835815v0.8858032H9v1.1567993h0.9835815v2.0286255h1.2196045V19.971035h5.3119507v-1.1567993H11.203186
	v-0.8858032H13.5505371z M11.203186,13.1855125h2.3345337c0.5638428,0,0.9440308,0.0285034,1.140564,0.0855103
	c0.6428833,0.1860962,1.0498047,0.814209,1.0498047,1.6575317c0,1.1567993-0.5777588,1.8285522-2.1647339,1.8285522H11.203186
	V13.1855125z"/>
</symbol><symbol id="icon-olimp_bonus" viewBox="0 0 62 14">
<path fill="#6B0C16" d="M62,14H0V0h62V14z"/>
<path fill="#FFFFFF" d="M6.278934,5.3036003H4.0677552V3.742522h5.5537553V0.9998233H1.000006v12.0003529H6.278934
	c1.3713493,0,2.4315991-0.376667,3.1807494-1.1313982c0.7477551-0.7547302,1.1230278-1.6908188,1.1230278-2.8110561
	c0-1.1090775-0.3696928-2.0116849-1.106287-2.7092175C8.7398291,5.6523666,7.6739993,5.3036003,6.278934,5.3036003z
	 M7.196887,9.905921c-0.2232103,0.2343712-0.5343103,0.3515568-0.9346938,0.3515568h-2.194438V7.9081879h2.194438
	c0.4003835,0,0.7114835,0.1116047,0.9346938,0.334815c0.2218156,0.2232113,0.3334208,0.5008287,0.3334208,0.831459
	C7.5303078,9.3939323,7.4187026,9.6715508,7.196887,9.905921z M22.1798897,2.3209503
	c-0.5775566-0.5036186-1.2290516-0.8886567-1.9544868-1.1579044c-0.7268276-0.2678525-1.4773731-0.4031739-2.254425-0.4031739
	c-1.0741997,0-2.0716724,0.2260006-2.9910202,0.6780019c-0.920743,0.4506061-1.6838446,1.1592994-2.2893028,2.1246848
	C12.0851965,4.5293388,11.7824669,5.6746879,11.7824669,7c0,1.0058422,0.1688032,1.9112396,0.5050144,2.7175875
	c0.3376055,0.8049526,0.795187,1.459239,1.3713493,1.9628572c0.5775566,0.502224,1.2290525,0.8858671,1.9544868,1.148139
	c0.7254333,0.2622719,1.4941139,0.394803,2.3060436,0.394803c1.81777,0,3.2993298-0.5803471,4.448864-1.739646
	C23.5163631,10.3230457,24.0911312,8.8289309,24.0911312,7c0-1.0058422-0.1743832-1.9112396-0.5231514-2.7161927
	C23.2192135,3.4774597,22.756052,2.8231738,22.1798897,2.3209503z M20.0538101,9.3911419
	c-0.5998783,0.5775576-1.3057804,0.8663359-2.1177082,0.8663359c-0.8216934,0-1.5317822-0.2887783-2.1246853-0.8663359
	C15.2171183,8.8149805,14.9199696,8.0170031,14.9199696,7c0-1.0393238,0.2971487-1.8428817,0.8914471-2.4078832
	c0.5929031-0.5663967,1.3141518-0.8495948,2.1595612-0.8495948c0.7993717,0,1.4969063,0.2887785,2.0912037,0.8663356
	S20.9536285,5.9829974,20.9536285,7S20.6536884,8.8149805,20.0538101,9.3911419z M32.8842278,0.9998233h3.1375046v12.0003529
	h-3.1375046V8.1997566h-3.7206402v4.8004198h-3.1361065V0.9998233h3.1361065v4.3372588h3.7206402V0.9998233z M45.2431145,0.9998233
	h3.3258362v0.3264453l-4.3372612,8.8447161c-0.3194695,0.7212486-0.6459122,1.297411-0.9765434,1.7326708
	c-0.3320274,0.4338655-0.7282257,0.7742615-1.1913872,1.0197935c-0.4631615,0.2455311-1.0030518,0.3473711-1.6196709,0.3083086
	c-0.6180153-0.0404568-1.3378677-0.2148399-2.1609573-0.5231495l0.4115448-2.2111788
	c0.5496559,0.2399511,1.0197945,0.3083096,1.4145966,0.2050753c0.3948059-0.10184,0.7282257-0.4506063,1.0030518-1.0449047
	l0.4115448-0.8579645l-4.1321831-7.4050083V0.9998233h3.4458122l2.2809296,4.6120868h0.101841L45.2431145,0.9998233z
	 M60.5190811,8.3546085c-0.1492729,1.0853615-0.520359,1.9977341-1.1146584,2.7343283
	c-0.5942955,0.7365952-1.2778778,1.2597446-2.0479546,1.5680542c-0.7714729,0.3083096-1.6099052,0.4631615-2.5125122,0.4631615
	c-0.7770538,0-1.5275993-0.1311359-2.2544289-0.394804c-0.7254333-0.2622719-1.3797188-0.6389399-1.9628563-1.1313982
	c-0.5817413-0.4910622-1.0476952-1.1341877-1.3964615-1.9279804c-0.3487663-0.7937918-0.5231476-1.6768684-0.5231476-2.649229
	c0-0.9932866,0.1743813-1.8903136,0.5231476-2.6910815c0.3487663-0.7993724,0.8147202-1.4452877,1.3964615-1.9363508
	c0.5831375-0.491063,1.2346344-0.8663356,1.9544868-1.1230277s1.4745865-0.3864332,2.2627983-0.3864332
	c0.8691254,0,1.6894226,0.149272,2.4608955,0.446421c0.7714691,0.2971489,1.4564476,0.7993726,2.056324,1.5080658
	c0.5998802,0.7086933,0.9751511,1.5722389,1.1230278,2.5892415h-3.0175247
	c-0.3989906-1.1425586-1.2736969-1.7145355-2.6227226-1.7145355c-0.9026108,0-1.6280441,0.2999389-2.1763039,0.8998172
	S51.8445625,6.0053182,51.8445625,7c0,0.8914471,0.2762222,1.6573381,0.831459,2.2976732
	c0.5538406,0.6403351,1.2764854,0.9598045,2.1679344,0.9598045c0.675209,0,1.2457924-0.1604319,1.7145348-0.4799023
	s0.7826309-0.7937927,0.9430618-1.422967H60.5190811z"/>
</symbol><symbol id="icon-olimp_coin" viewBox="0 0 24 24">
	<path fill="#6B0C17" d="M12.0000029,0.6041554C5.7062507,0.6041554,0.6041554,5.7062588,0.6041554,12
		s5.1020951,11.3958454,11.3958473,11.3958454S23.3958454,18.2937412,23.3958454,12S18.2937489,0.6041554,12.0000029,0.6041554z"/>
	<path fill="#F5C945" d="M18.2228603,15.6719894c0.0774345-0.1332951,0.149929-0.2793398,0.2104797-0.4355726
		c-0.5937328-0.5082808-0.8580055-1.7960854-0.2546406-3.1599941c0.8142509,1.310771,1.0304508,2.2980766,0.5379143,3.0583467
		c-0.0424328,0.173234-0.1004658,0.3397865-0.168457,0.4965582c-0.1115246,0.0928555-0.2156754,0.1897926-0.3136311,0.2890997
		C18.2339573,15.8392735,18.2300587,15.7564802,18.2228603,15.6719894z M17.3795395,7.0804777
		c-0.4292316-0.092176-0.7760258-0.3184886-1.0301704-0.6772041c-0.0536613-0.0757203-0.1022892-0.1569853-0.1462574-0.2428713
		c-0.103981-0.0114574-0.21383-0.0175328-0.3305378-0.0171862C16.2008152,6.8969307,16.703516,7.1275105,17.3795395,7.0804777z
		 M19.0597897,9.7569361c0.0364323,0.0417328,0.0665531,0.0820179,0.094368,0.1217575
		c0.0018463-0.1613932,0.0203991-0.3310165,0.0584984-0.5095434c-0.0016384-0.2131062-0.041851-0.4093809-0.1155853-0.5885496
		c-0.3346939-0.2861691-0.5750408-0.557086-0.7576504-0.8543653c-0.3809586-0.2439713-0.8575325-0.4131675-1.3705101-0.5093813
		C17.1082458,8.8338938,18.0343227,9.7456417,19.0597897,9.7569361z M14.5535488,18.6374378
		c0.3496275,0.0303268,0.6880713,0.1511745,1.002943,0.35952c0.225626-0.3179798,0.4495697-0.5786495,0.6936817-0.7619095
		c0.2185459-0.4794598,0.3763599-1.0506611,0.4757328-1.6822643C15.5975008,16.896225,14.8709011,17.655077,14.5535488,18.6374378z
		 M17.3771248,6.8544159c0.2516346,0.2794728,0.5421886,0.5477252,0.7927532,0.7552648
		c-0.0656948-0.1435351-0.1217346-0.2967038-0.1721783-0.4608722c-0.1362038-0.1086607-0.2773476-0.2353711-0.4120979-0.370091
		c0.4123783-0.9682159-0.1350155-1.8881068-1.369875-2.813704C15.9624166,5.2701368,16.2714272,6.580317,17.3771248,6.8544159z
		 M16.1197281,5.9753122c-0.073307-0.1818857-0.1274719-0.3810391-0.1619911-0.5939531
		c-0.4733191-0.6894441-1.591301-0.7491155-2.8559189-0.3622956C13.8794222,6.1155767,14.939187,6.3514795,16.1197281,5.9753122z
		 M14.2321577,4.5720925c0.6045771-0.0448551,1.1148453,0.0502295,1.4881926,0.2848768
		c0.0723906,0.0454974,0.1366024,0.0978236,0.1974335,0.1528959c-0.0102911-0.1916752-0.0059214-0.3915739,0.012579-0.5972314
		c-0.4536886-0.5703223-1.2883959-0.8703921-2.4838629-0.8685391C13.665659,3.9942179,13.9280281,4.3293762,14.2321577,4.5720925z
		 M19.3300056,8.6888523c-0.0031662,0.0829258,0.0003548,0.1645155,0.0096855,0.2452641
		c0.0757732-0.2051706,0.1777306-0.4216127,0.3089657-0.6499929c0.233223-0.9220171-0.12953-2.0105424-1.7366447-2.6117601
		C18.1760635,7.2970829,18.3606892,7.8939672,19.3300056,8.6888523z M18.3132286,9.9212084
		c0.210043,2.2052593,0.3807659,2.7347794,1.3919029,3.5399342c-0.0658054-0.6076994,0.0213718-1.1843634,0.2624359-1.7451849
		C19.7364845,11.1263523,19.2172413,10.5618992,18.3132286,9.9212084z M20.9409447,10.615037
		c-1.2067699,1.3829184-1.1784077,2.6433496-0.8122807,3.7200928c-0.1331692,0.1135111-0.2515297,0.1742821-0.3678169,0.2335768
		c-0.0236378,0.0120411-0.0474606,0.024332-0.071394,0.0369196c0.0638638-0.1304235,0.1216526-0.2646275,0.1680145-0.4013929
		c-0.0602913-0.2052069-0.1041069-0.4064264-0.1327877-0.6043921c-0.0756969,0.6837969-0.4789734,1.3616209-0.8223629,1.7642241
		c0.1956997-0.1331854,0.4063683-0.2539749,0.6290493-0.3593349c0.1234398-0.1025333,0.2519608-0.1883678,0.378397-0.2710285
		c0.1391869-0.0910759,0.2750072-0.1804314,0.3970966-0.2884493C21.1148872,14.2132101,21.76437,12.4449558,20.9409447,10.615037z
		 M15.7130928,19.1565552c0.8817844,0.7059002,1.7078609,0.6049538,2.6055031-0.591753
		C16.9631596,17.7796841,16.3929634,18.1866207,15.7130928,19.1565552z M17.5852699,17.5413303
		c-0.0785103,0.0122833-0.1529388,0.0325642-0.2231388,0.059103c0.0213203-0.4721966,0.2744389-1.0068836,0.6991749-1.4947834
		c0.0302162-0.4537773-0.0552197-0.9809055-0.279459-1.5793772c-0.9867172,0.9301891-1.0850792,1.9106665-0.6644478,3.0533495
		c-0.1021709,0.1365509-0.2153797,0.2688503-0.3331127,0.3944244c0.1394081-0.0342026,0.2875862-0.0460892,0.4468899-0.0337753
		c0.1605587-0.1206779,0.3266468-0.2031536,0.4928303-0.2461491c1.4294662,0.266428,2.0689087-0.3280125,2.9199314-2.8256187
		C18.8911324,15.2050638,17.6820297,16.5693493,17.5852699,17.5413303z M11.5225725,20.1646729
		c-0.4059925,0.197485-0.900425,0.3674564-1.5438547,0.4449043l-0.1270876,0.015274l0.6672087,0.5538311l0.0272121-0.0068817
		c0.4795637-0.1220512,0.9175215-0.4116898,1.3179913-0.7245903c-0.0791531-0.06464-0.1569481-0.1292362-0.2330751-0.1925831
		C11.5945721,20.2243443,11.5586052,20.1945496,11.5225725,20.1646729z M19.5000057,10.6342096
		c0.1812744,0.1915417,0.3316975,0.3831577,0.4520588,0.5778446c0.8685322-0.6252251,0.9164219-1.9518681,0.2427101-3.3625584
		C19.3403111,9.020999,19.2265644,9.863205,19.5000057,10.6342096z M13.194644,19.2161674
		c-0.2607813,0.072443-0.5103273,0.2361546-0.8028889,0.4311657c-0.0785112,0.0523262-0.1602268,0.1065941-0.2453232,0.1614227
		c0.0926924,0.0563049,0.190546,0.1122932,0.2941275,0.1669369c0.2149591-0.1775074,0.4240046-0.3425331,0.6283484-0.4704552
		c0.6577663,0.7345943,1.8527985,0.8494205,3.0303259,0.3113441C15.2639961,18.7197437,14.1937332,18.5921535,13.194644,19.2161674z
		 M8.6898565,6.1094127l0.228734,0.0456595c0.6772194-0.067925,1.2823725-0.4174709,1.7745237-1.1114845
		c-0.1954699-0.0597749-0.3874102-0.1088529-0.574029-0.1466355C9.5905018,5.3627262,8.9082928,5.5941401,8.0321636,5.6224809
		c-0.0349483,0.1475511-0.0802317,0.287055-0.13554,0.4173384C8.1289234,6.0309458,8.3898449,6.0493941,8.6898565,6.1094127z
		 M10.7987928,3.530467C9.5059452,3.5882263,8.6052322,3.9442837,8.111619,4.5634036
		c0.0182199,0.2951751,0.0058403,0.5768261-0.0361805,0.8382568C9.3179092,5.3489799,10.2323751,4.8449512,10.7987928,3.530467z
		 M11.6152134,19.6943378c-0.2321453-0.1499443-0.4462481-0.2867088-0.6699257-0.3834839
		c-1.0292902-0.7022152-2.1467924-0.6060085-3.0120702,0.5302505c1.1674438,0.5334778,2.3528419,0.4260502,3.0140929-0.2917118
		c0.2319832,0.1524963,0.4726248,0.3458405,0.7213068,0.5470085c0.5387192,0.4358387,1.1492901,0.9297619,1.817791,1.0999241
		l0.0272112,0.0068798l0.667202-0.5538292l-0.12708-0.015274C12.8449049,20.4885731,12.1630793,20.0482101,11.6152134,19.6943378z
		 M3.8392653,10.5527821c0.0502293-0.1378946,0.1095464-0.2701941,0.1723113-0.4101334
		c0.1457715-0.3251848,0.303606-0.6797361,0.3536067-1.1535711C4.2323084,8.649992,4.025197,8.2821083,3.7275336,7.8740196
		c-0.593415,1.2425728-0.6260893,2.4193544-0.0325341,3.1099501C3.7354915,10.8505116,3.7830782,10.7068958,3.8392653,10.5527821z
		 M3.7268322,14.4701233c0.0974839,0.0860996,0.203295,0.1608829,0.3130186,0.2335691
		c0.3317776,0.1100931,0.6379085,0.2583895,0.9145322,0.4339561c-0.086041-0.1502085-0.1536779-0.3022995-0.2022614-0.4565678
		c-0.2130246-0.3830547-0.3837857-0.8093252-0.4225802-1.2161446C4.307158,13.6827965,4.263248,13.9051304,4.2018566,14.131628
		c0.063931,0.1882572,0.1496987,0.3765211,0.2480316,0.5586214c-0.0607419-0.0366831-0.119904-0.0671492-0.1782832-0.0969152
		c-0.1162868-0.0593462-0.2346406-0.1201477-0.3678181-0.2336807c0.3661273-1.0767431,0.3944976-2.3371735-0.8122792-3.7200918
		C2.2676823,12.4703884,2.9182441,14.2394838,3.7268322,14.4701233z M8.0417747,19.3146191
		c-0.0198431-0.0216236-0.1176224-0.1006794-0.2038851-0.1704884c-0.2680383-0.2167377-0.7297745-0.6895752-0.9992151-1.0237751
		l-0.0589848-0.0731659c-0.3459587-0.027935-0.7468128,0.0588894-1.2308731,0.2953091
		c0.4783831,1.1424389,1.6489792,1.4817162,2.5204945,1.0022621L8.0417747,19.3146191z M6.3512406,17.7102299
		c0.0496387,0.012661,0.0998831,0.0288219,0.1500902,0.0465164c-0.408236-0.3910942-0.6224346-0.9045639-0.6399751-1.5136299
		c-0.5497928-0.7148314-1.4627156-1.3580465-2.645463-1.4995441C4.1255822,17.4079018,4.806057,18.0171299,6.3512406,17.7102299z
		 M4.1672187,10.1992273c-0.0619531,0.1381083-0.1204138,0.2684736-0.1692996,0.4026031
		c-0.0846531,0.2321739-0.1490569,0.4394484-0.1992345,0.6241541c0.0883074,0.1448345,0.1651504,0.2904949,0.2320933,0.4371595
		c0.0469666-0.2406197,0.1141901-0.5304422,0.2095037-0.8559227c0.120295-0.2699795,0.2911005-0.4604216,0.3976793-0.6222715
		c0.0901899-0.1370087,0.1816206-0.268363,0.3138385-0.4034376C5.985549,9.7825089,6.9232688,8.868022,7.0635409,7.4413781
		C5.7450542,7.6886864,4.6662502,8.4174709,4.8368707,9.6615276C4.7694998,9.7455902,4.7075396,9.83465,4.6448488,9.9252682
		c-0.0688181,0.0994406-0.1391573,0.2003345-0.2192116,0.2981062c0.1780105-0.5448236,0.3407764-1.0715237,0.3281159-1.5524311
		l0.0019193-0.001565c0.042264-0.0934677,0.0912161-0.1847582,0.1506591-0.2724524
		C5.0606813,8.1691141,5.273448,7.9665723,5.5342441,7.7930799c0.2947989-0.5028772,0.4259462-1.1100893,0.586195-2.0961924
		C4.2466526,6.3978701,4.0645523,7.7611294,4.5463462,8.7506943C4.535265,9.3757639,4.342608,9.8080301,4.1672187,10.1992273z
		 M6.8509068,17.7623425c0.2665396,0.4111233,0.6473432,0.7793388,0.9614248,1.0530014
		c-0.1127653-0.2090454-0.2111568-0.4409542-0.2920451-0.7005539c-0.1673064-0.1776333-0.3259602-0.3665924-0.4642463-0.5586205
		c0.3732514-1.0515709,0.2614532-1.9786224-0.6435556-2.8846931C5.8184199,16.1226959,6.0640378,17.1744652,6.8509068,17.7623425z
		 M5.7192235,9.8436861c-0.9314675,0.6601286-1.4541521,1.2393475-1.6743011,1.8485518
		c0.2421484,0.5423803,0.336812,1.0996809,0.2907391,1.6848192C5.3395863,12.5755348,5.5097494,12.0429955,5.7192235,9.8436861z
		 M6.0405622,7.1686301C5.9950647,7.3196435,5.9436245,7.4585347,5.8858356,7.5907817
		c0.020493-0.0100842,0.041924-0.019526,0.0628457-0.0293374c0.2295318-0.1956539,0.4834843-0.4346571,0.7067561-0.6825337
		c1.1056018-0.2741508,1.4145823-1.5842719,1.1612945-2.8893731c-1.2348375,0.9255974-1.7822456,1.8454883-1.369905,2.8137038
		C6.3140116,6.935998,6.1749649,7.0610399,6.0405622,7.1686301z M5.8725252,12.0110521
		c-1.3176823,1.4808006-1.1486192,2.5334263-0.4992976,3.3511896c0.0120482,0.0372438,0.0246572,0.0741625,0.037982,0.1105947
		c0.1680222,0.141202,0.3199658,0.292141,0.4567456,0.4481001c0.0027833-0.0352507,0.0084162-0.0717926,0.0123954-0.1076117
		c-0.0897326-0.1414976-0.1758327-0.3003359-0.2485709-0.4723816C6.2855525,14.7851419,6.7952442,13.4159107,5.8725252,12.0110521z
		 M9.5134153,18.6478176c-0.2750216-0.9554749-0.9445925-1.7199669-2.0148034-2.1182137
		c0.0260077,1.1176186,0.3161559,2.0192528,0.8134236,2.6041775C8.6837292,18.8386288,9.0904226,18.6761055,9.5134153,18.6478176z
		 M8.646699,6.325449c-0.3198843-0.0638866-0.6073751-0.0826006-0.862361-0.05897
		C7.7525129,6.3223042,7.7193069,6.3766751,7.6830816,6.4277978C7.4217319,6.7965455,7.0624261,7.0251102,6.6165028,7.1118894
		C7.4152284,7.3198867,8.0736151,7.1543231,8.646699,6.325449z"/>
	<path fill="#F5C945" d="M12.0000038,0C5.3725853,0,0,5.3725934,0,12s5.3725853,12,12.0000038,12C18.6274147,24,24,18.6274071,24,12
		S18.6274147,0,12.0000038,0z M12.0000038,22.7022419C6.0893216,22.7022419,1.2977704,17.9106693,1.2977704,12
		S6.0893216,1.2977842,12.0000038,1.2977842c5.910675,0,10.7022266,4.7915454,10.7022266,10.7022161
		S17.9106789,22.7022419,12.0000038,22.7022419z"/>
</symbol><symbol id="icon-olimp_star" viewBox="0 0 10 10">
<polygon fill-rule="evenodd" clip-rule="evenodd" fill="#D34007" points="5,0 6.545085,3.291796 10,3.8196602 7.5,6.3819661 8.0901699,10 5,8.2917957 1.9098301,10 
	2.5,6.3819661 0,3.8196602 3.454915,3.291796 "/>
</symbol><symbol id="icon-olimp_text" viewBox="0 0 93 14">
<path fill="#FFFFFF" d="M93,14H0V0h93V14z"/>
<path fill="#6B0C16" d="M55.9215355,11.7483988c0-0.9599743,0.7544746-1.5771418,1.6976814-1.5771418
	c0.9603539,0,1.6977959,0.6171675,1.6977959,1.5771418s-0.737442,1.5598879-1.6977959,1.5598879
	C56.6760101,13.3082867,55.9215355,12.7083731,55.9215355,11.7483988z M7.0906329,0.7602864
	c-3.1211214,0-6.190681,2.0913465-6.190681,6.2397671c0,4.1654634,2.9666824,6.222537,6.1392393,6.222537
	c3.6355391,0,6.1736517-2.5541658,6.1736517-6.222537C13.2128429,2.8516328,10.1603127,0.7602864,7.0906329,0.7602864z
	 M7.0563407,10.2570791c-1.5433545,0-3.0182381-1.1143646-3.0182381-3.2570257c0-2.1941895,1.4920263-3.2569988,3.0525303-3.2569988
	c1.4920325,0,2.9839454,1.1142309,2.9839454,3.2569988C10.0745783,9.1427145,8.5483665,10.2570791,7.0563407,10.2570791z
	 M18.3566647,10.1712513h4.3386822v2.8113546h-7.4769535V0.9830952h3.1382713V10.1712513z M29.3371506,10.1884012h1.5262051
	v2.8113546h-6.1906815v-2.8113546h1.5262051V3.811599H24.809845V1.0002446h5.9163284V3.811599h-1.3890228V10.1884012z
	 M43.7688484,0.9659725h1.1146698v12.033783h-3.1382561V7.4628472l-2.5551605,2.6741319h-0.3602028l-2.5551453-2.6741319v5.5369086
	h-3.1382713V0.9659725h1.1146812l4.7674828,5.1941071L43.7688484,0.9659725z M52.4424515,0.9830952
	c-1.7835197-0.0171227-3.5154953,0-5.2990265,0v11.9995108h3.1382561V9.8798723h2.1607704
	c2.8467751,0,4.3043823-2.19419,4.3043823-4.3883791C56.798275,3.2287328,55.323513,0.9830952,52.4424515,0.9830952z
	 M52.4424515,7.1543179h-2.2122116V3.708756h2.2122116c0.8574753,0,1.3033066,0.8398938,1.3033066,1.6970167
	C53.7457581,6.2800455,53.265625,7.1543179,52.4424515,7.1543179z M69.8661499,6.7085671
	c0.6001511-0.4799433,0.9945221-1.3370667,0.9945221-2.074224c0-2.2284613-1.5604858-3.6855202-3.789856-3.6855202h-5.2990379
	v11.9823618h5.779171c2.4695282,0,3.807106-1.5942812,3.807106-3.6512213
	C71.3580551,8.1828547,70.8435364,7.2057395,69.8661499,6.7085671z M64.9100494,3.6744838h1.9378586
	c0.6344452,0,0.9431992,0.5313644,0.9260559,1.0627027c-0.0171432,0.4800496-0.3258972,0.9428434-0.9260559,0.9428434h-1.9378586
	V3.6744838z M67.3280258,10.2055235h-2.4179764V8.2171535h2.4008331c0.2057571,0,0.360199,0.0514221,0.5145264,0.1199665
	c0.2915039,0.2056856,0.4458313,0.5827589,0.4286804,0.9428434C68.2026443,9.7598791,67.9282913,10.2055235,67.3280258,10.2055235z
	 M76.6151428,10.1369791h4.5101471v2.8627768h-7.6484222V1.0002446h7.4941025v2.7256606h-4.3558273v1.7141664h4.012886v2.7427831
	h-4.012886V10.1369791z M91.8999481,1.0002446v2.74281h-2.9323807v9.2567015h-3.0353699V3.7430546h-2.9496613v-2.74281H91.8999481z"/>
</symbol><symbol id="icon-phone" viewBox="0 0 14 14">
<path fill-rule="evenodd" d="M13.961,10.847 C13.921,10.728 13.670,10.553 13.206,10.321 C13.080,10.248 12.902,10.149 12.670,10.023 C12.438,9.897 12.228,9.781 12.039,9.675 C11.851,9.570 11.674,9.467 11.508,9.368 C11.482,9.348 11.399,9.290 11.260,9.194 C11.121,9.098 11.003,9.027 10.907,8.980 C10.811,8.934 10.717,8.911 10.624,8.911 C10.492,8.911 10.327,9.005 10.128,9.194 C9.929,9.382 9.747,9.588 9.582,9.809 C9.416,10.031 9.241,10.236 9.055,10.425 C8.870,10.614 8.718,10.708 8.599,10.708 C8.539,10.708 8.465,10.692 8.375,10.658 C8.286,10.625 8.218,10.597 8.172,10.574 C8.125,10.551 8.046,10.504 7.933,10.435 C7.821,10.366 7.758,10.327 7.745,10.321 C6.838,9.818 6.060,9.242 5.411,8.593 C4.762,7.944 4.186,7.166 3.683,6.259 C3.677,6.246 3.639,6.183 3.569,6.071 C3.500,5.958 3.453,5.879 3.430,5.832 C3.407,5.786 3.379,5.718 3.346,5.629 C3.313,5.540 3.296,5.465 3.296,5.405 C3.296,5.286 3.391,5.134 3.579,4.949 C3.768,4.763 3.973,4.588 4.195,4.422 C4.417,4.257 4.622,4.075 4.811,3.876 C4.999,3.678 5.094,3.512 5.094,3.380 C5.094,3.287 5.070,3.193 5.024,3.097 C4.978,3.001 4.906,2.883 4.811,2.744 C4.714,2.605 4.657,2.523 4.637,2.496 C4.537,2.331 4.435,2.153 4.329,1.965 C4.223,1.776 4.107,1.566 3.981,1.334 C3.856,1.103 3.756,0.924 3.683,0.798 C3.452,0.335 3.276,0.083 3.157,0.043 C3.111,0.023 3.041,0.014 2.949,0.014 C2.770,0.014 2.537,0.047 2.249,0.113 C1.961,0.179 1.734,0.249 1.568,0.321 C1.237,0.460 0.887,0.864 0.516,1.533 C0.178,2.155 0.009,2.771 0.009,3.380 C0.009,3.559 0.021,3.734 0.044,3.906 C0.067,4.078 0.109,4.269 0.168,4.477 C0.228,4.686 0.276,4.841 0.312,4.944 C0.349,5.046 0.416,5.230 0.516,5.495 C0.615,5.760 0.675,5.922 0.695,5.981 C0.926,6.630 1.201,7.209 1.519,7.719 C2.042,8.560 2.757,9.434 3.664,10.341 C4.571,11.248 5.444,11.963 6.285,12.486 C6.795,12.803 7.374,13.078 8.023,13.310 C8.082,13.330 8.244,13.389 8.509,13.488 C8.774,13.588 8.958,13.656 9.060,13.692 C9.163,13.728 9.319,13.776 9.527,13.836 C9.736,13.896 9.926,13.937 10.098,13.960 C10.270,13.983 10.446,13.995 10.624,13.995 C11.233,13.995 11.849,13.826 12.471,13.488 C13.140,13.118 13.544,12.767 13.683,12.436 C13.756,12.270 13.825,12.044 13.891,11.756 C13.957,11.468 13.991,11.234 13.991,11.056 C13.991,10.963 13.981,10.893 13.961,10.847 L13.961,10.847 Z"/>
</symbol><symbol id="icon-planet">
<path fill-rule="evenodd" d="M15.091,4.164 C14.294,1.751 11.971,-0.000 9.235,-0.000 C7.989,-0.000 6.830,0.364 5.860,0.987 C3.796,0.679 0.746,0.550 0.102,2.310 C-0.399,3.679 0.970,5.202 3.109,6.545 C3.393,9.599 6.031,12.000 9.235,12.000 C10.926,12.000 12.460,11.331 13.573,10.250 C14.205,10.330 14.811,10.377 15.372,10.377 C17.153,10.376 18.498,9.941 18.891,8.867 C19.562,7.030 16.853,5.156 15.091,4.164 ZM13.712,6.000 C13.712,6.927 13.411,7.787 12.902,8.495 C11.737,8.292 10.370,7.949 8.829,7.412 C7.189,6.839 5.843,6.216 4.778,5.618 C4.977,3.390 6.898,1.636 9.235,1.636 C11.703,1.636 13.712,3.594 13.712,6.000 ZM1.680,2.860 C1.744,2.684 2.509,2.355 4.271,2.461 C3.788,3.104 3.433,3.844 3.243,4.644 C2.092,3.806 1.584,3.122 1.680,2.860 ZM9.235,10.364 C7.359,10.364 5.752,9.232 5.087,7.634 C6.096,8.126 7.179,8.573 8.265,8.953 C9.276,9.305 10.322,9.608 11.349,9.845 C10.718,10.175 9.999,10.364 9.235,10.364 ZM17.313,8.317 C17.212,8.592 16.292,8.815 14.718,8.716 C15.104,7.977 15.339,7.150 15.380,6.274 C16.972,7.352 17.379,8.136 17.313,8.317 Z"/>
</symbol><symbol id="icon-play" viewBox="0 0 51 69">
<g>
				<path fill-rule="evenodd" clip-rule="evenodd" d="M51,34.1c0-0.6-0.4-3.5-3.4-5.6L6.5,0L5.4,0C2.4,0,0,2.5,0,5.5
					l0,58c0,3,2.4,5.5,5.4,5.5h1.1l41-28.6c2.9-1.9,3.5-4.3,3.5-6L51,34.1z M43.6,34.6L7,60.1L7,8.9l36.6,25.4
					c0.1,0.1,0.1,0.1,0.2,0.2C43.7,34.5,43.7,34.6,43.6,34.6z"/>
			</g>
</symbol><symbol id="icon-pointer" viewBox="0 0 12 18">
<path fill-rule="evenodd" d="M6.000,8.987 C5.174,8.987 4.469,8.694 3.884,8.107 C3.300,7.521 3.007,6.814 3.007,5.986 C3.007,5.158 3.300,4.450 3.884,3.864 C4.469,3.278 5.174,2.985 6.000,2.985 C6.826,2.985 7.531,3.278 8.116,3.864 C8.700,4.450 8.993,5.158 8.993,5.986 C8.993,6.814 8.700,7.521 8.116,8.107 C7.531,8.694 6.826,8.987 6.000,8.987 ZM10.232,1.743 C9.063,0.571 7.652,-0.015 6.000,-0.015 C4.348,-0.015 2.937,0.571 1.768,1.743 C0.599,2.915 0.015,4.329 0.015,5.986 C0.015,6.838 0.143,7.537 0.400,8.084 L4.667,17.156 C4.784,17.414 4.965,17.617 5.211,17.766 C5.456,17.914 5.719,17.988 6.000,17.988 C6.281,17.988 6.544,17.914 6.789,17.766 C7.035,17.617 7.220,17.414 7.344,17.156 L11.600,8.084 C11.857,7.537 11.985,6.838 11.985,5.986 C11.985,4.329 11.401,2.915 10.232,1.743 Z"/>
</symbol><symbol id="icon-search" viewBox="0 0 16 16">
<path d="M15.5567627,12.2289734L12.102356,8.7269592c0.2952881-0.7476807,0.4487915-1.550293,0.4487915-2.364502
	c0-3.5084839-2.8148804-6.3621216-6.2752686-6.3621216c-3.4602048,0-6.2752075,2.8536377-6.2752075,6.3621216
	c0,3.5072021,2.8150024,6.3607788,6.2752075,6.3607788c0.9558105,0,1.9177856-0.3272705,2.5966797-0.6260986l3.4077759,3.4541016
	c0.2863159,0.2897339,0.6747437,0.4484253,1.0945435,0.4484253c0.8222046,0,1.5100708-0.6071777,1.7677612-0.8684692
	c0.3174438-0.3221436,0.5615234-0.6836548,0.7058105-1.0454102C16.1256714,13.3894348,16.0165405,12.6954651,15.5567627,12.2289734z
	 M14.2244873,14.200592c-0.2977295,0.302002-0.6303101,0.4829712-0.8496094,0.4829712
	c-0.0734863,0-0.1342163-0.0200806-0.1766357-0.0626221l-4.0687866-4.125061c0,0-1.5067139,0.9115601-2.8535767,0.9115601
	c-2.748718,0-4.9769897-2.2594604-4.9769897-5.0449829c0-2.7866821,2.2282715-5.0462036,4.9769897-5.0462036
	c2.7489624,0,4.9771118,2.2595215,4.9771118,5.0462036c0,0.9638062-0.2666016,1.8646851-0.7296143,2.6304321l0.0166016,0.0119019
	l4.098999,4.1550903C14.8078613,13.3311462,14.6225586,13.7969666,14.2244873,14.200592z"/>
</symbol><symbol id="icon-showmore" viewBox="0 0 14 14">
<path d="M9.9981689,5.2157593L7.3486938,9.7728271C7.2830811,9.9090576,6.9590454,9.9865723,6.9590454,9.9865723
	c-0.0797729,0-0.288269-0.0946045-0.3584595-0.2137451l-2.611145-4.5564575c0-0.1179199,0.0857544-0.2134399,0.1907959-0.2134399
	l5.6260376-0.0009766C9.9117432,5.0029297,9.9976807,5.0978394,9.9981689,5.2157593z M13.999939,6.9998779
	c0,3.8659058-3.1340942,7.000061-7,7.000061c-3.8659668,0-6.9998779-3.1341553-6.9998779-7.000061
	c0-3.8660278,3.1339111-6.9998169,6.9998779-6.9998169C10.8658447,0.000061,13.999939,3.1338501,13.999939,6.9998779z
	 M12.6451416,6.9998779c0-3.1130981-2.5324707-5.6452026-5.6452026-5.6452026c-3.112793,0-5.6452026,2.5321045-5.6452026,5.6452026
	c0,3.112793,2.5324097,5.6448975,5.6452026,5.6448975C10.1126709,12.6447754,12.6451416,10.1126709,12.6451416,6.9998779z"/>
</symbol><symbol id="icon-sovsport-article" viewBox="0 0 18 18">
<path fill="#FFFFFF" d="M15.9999084,10.0002136h2v6c0,1.1099854-0.9000244,2-2,2h-14c-1.0999756,0-2-0.8900146-2-2v-14
	c0-1.1000366,0.9000244-2,2-2h6v2h-6v14h14V10.0002136z M18.0000916-0.0002136v5.1640015L10.164093,13.000824H6.9989319
	l-2.9991455,0.9996948l1-3l0.0003052-3.1647339l7.8359985-7.8359985H18.0000916z M15.999115,2.000824h-2.335022L6.999115,8.6637878
	v0.8372192l6.0006714-4.5004883L8.4996033,11.000824h0.8364868l6.6630249-6.6650391V2.000824z"/>
</symbol><symbol id="icon-sovsport-news" viewBox="0 0 22 18">
<path fill="#D34007" d="M8,10h5v2H8V10z M8,9h10V7H8V9z M22,2v13c0,1.6539917-1.3460083,3-3,3H3c-1.6539917,0-3-1.3460083-3-3V7
	c0-1.6539917,1.3460083-3,3-3h1V2c0-1,1-2,2-2h14C21,0,22,1,22,2z M4,6H3C2.447998,6,2,6.4489746,2,7v8c0,0.552002,0.447998,1,1,1
	s1-0.447998,1-1V6z M20,15h-0.0100098V2.0799561C19.9699707,2.0599976,19.9400024,2.0199585,19.9099731,2H6.0800171
	C6.0599976,2.0199585,6.0200195,2.0599976,6,2.0799561V15c0,0.3529663-0.0720215,0.6859741-0.1849976,1H19
	C19.552002,16,20,15.552002,20,15z M8,6h10V4H8V6z"/>
</symbol><symbol id="icon-sphere" viewBox="0 0 26 26">
<path fill="#4E4DC2" d="M24.1137085,6.2905273C24.09729,6.2590332,24.0791626,6.230957,24.0595093,6.201416
	C21.7682495,2.4881592,17.6743164,0,13,0C5.8320313,0,0,5.831543,0,13s5.8320313,13,13,13s13-5.831543,13-13
	C26,10.543457,25.3025513,8.2521973,24.1137085,6.2905273z M22.1416626,6.8916016
	c-1.635376,5.543457-6.1067505,8.1401367-8.1863403,9.069458c-0.0982056-0.9263916-0.0770874-1.6990967-0.0383301-2.194458
	c1.7570801-0.6132813,6.1723633-2.7518311,6.6906128-8.6928711C21.1803589,5.6236572,21.697998,6.2297363,22.1416626,6.8916016z
	 M13,2c2.0668945,0,3.9953613,0.5834961,5.6491089,1.5791016c0.0096436,0.3859863,0.0067749,0.7593994-0.0177002,1.1119385
	c-1.4915771-0.9061279-4.4085693-2.3048096-8.2036133-2.3748779C11.2545776,2.1169434,12.112915,2,13,2z M5.3952026,5.071167
	c0.069397-0.0074463,0.1383667-0.0020752,0.2073364-0.0247803c6.572998-2.1640625,11.5567017,0.9987793,12.6484375,1.7810059
	c-0.2775879,0.901123-0.6715698,1.6547852-1.1277466,2.2783203C15.5598755,8.1181641,10.4091797,5.3863525,3.7459717,7.076416
	C4.2165527,6.3438721,4.7695923,5.6713867,5.3952026,5.071167z M2.5704956,9.52771
	c6.2649536-2.3165283,11.2973633-0.0159912,13.1231689,1.0474854c-1.0021973,0.7844238-1.994873,1.1777344-2.5206299,1.3417969
	c-0.572937-0.3554688-1.6875-0.963501-3.1431885-1.3703613c-0.1061401-0.0812988-0.2287598-0.144043-0.3667603-0.1779785
	c-0.1394043-0.0332031-0.2780151-0.0334473-0.4105225-0.0101318c-1.2419434-0.2562256-2.6744995-0.3323975-4.1989136-0.0030518
	c-0.0476685,0.0056152-0.0907593,0.0192871-0.1365356,0.03125c-0.9109497,0.2106934-1.8521118,0.5683594-2.803772,1.1212158
	C2.2064209,10.8261719,2.3580322,10.1640625,2.5704956,9.52771z M2.0493774,13.9743652
	c0.6343384-0.4891357,1.2651367-0.868042,1.8865356-1.1461182c-0.1621704,1.7730713-0.12854,4.69104,1.1253052,7.765625
	C3.3811035,18.8381348,2.2753296,16.532959,2.0493774,13.9743652z M8.9119263,23.2037354
	c-3.4728394-4.2342529-3.1390991-9.2467041-2.8870239-10.9901123c0.7909546-0.1169434,1.5450439-0.1151123,2.2376709-0.0239258
	c-0.2868652,2.1525879-0.4537354,7.1240234,2.8766479,11.6405029C10.3665771,23.6977539,9.6209717,23.4888916,8.9119263,23.2037354z
	 M13.8480835,23.9570313c-3.9347534-4.125-3.8890381-9.1126709-3.6321411-11.2836914
	c0.755249,0.276123,1.3425903,0.592041,1.7199707,0.8222656c-0.0702515,0.8039551-0.1048584,2.2575684,0.2389526,3.9822998
	c0.0067139,0.0518799-0.001709,0.1030273,0.0136108,0.1549072c0.0076904,0.026123,0.0247803,0.0460205,0.0343628,0.0710449
	c0.4103394,1.8967285,1.2991333,4.0734863,3.1146851,6.0405273C14.8522949,23.8498535,14.3546143,23.9180908,13.8480835,23.9570313z
	 M17.4632568,23.0446777c-0.4550781-0.4177246-0.8549194-0.8503418-1.2035522-1.2935791
	c1.6173096-0.6658936,4.8624268-2.3328857,7.3010254-5.7011719C22.6553955,19.1789551,20.3990479,21.7347412,17.4632568,23.0446777z
	 M23.7109375,11.5429688c-2.0366821,5.6071777-7.0413818,7.9089355-8.5609131,8.4934082
	c-0.3577271-0.6962891-0.6184692-1.3901367-0.8068237-2.0554199c1.9859009-0.8034668,6.6598511-3.2164307,9.0236816-8.6240234
	c0.2207642,0.6259766,0.3842163,1.2768555,0.4887695,1.9487305C23.8014526,11.3798828,23.7439575,11.4521484,23.7109375,11.5429688z
	"/>
</symbol><symbol id="icon-twitter" viewBox="0 0 21 19">
<g>
				<path fill-rule="evenodd" d="M18.843,5.471 L18.854,6.057 C18.854,12.073 14.519,19.012 6.594,19.012 C4.162,19.012 1.898,18.258 -0.004,16.958 C0.327,17.004 0.671,17.028 1.021,17.028 
C3.041,17.028 4.897,16.294 6.370,15.075 C4.481,15.040 2.901,13.719 2.346,11.914 C2.612,11.972 2.880,11.995 3.158,11.995 C3.552,11.995 3.937,11.937 
4.290,11.836 C2.325,11.417 0.840,9.579 0.840,7.378 L0.840,7.320 C1.417,7.661 2.079,7.863 2.784,7.886 C1.630,7.074 0.873,5.673 0.873,4.105 C0.873,3.270 
1.086,2.481 1.461,1.814 C3.574,4.567 6.756,6.372 10.334,6.566 C10.257,6.237 10.227,5.887 10.227,5.526 C10.227,3.021 12.149,0.979 14.530,0.979 C15.768,0.979 
16.889,1.533 17.679,2.411 C18.652,2.209 19.578,1.837 20.412,1.317 C20.092,2.380 19.409,3.270 18.512,3.833 C19.387,3.720 20.221,3.472 20.989,3.111 
C20.412,4.027 19.677,4.827 18.843,5.471 L18.843,5.471 Z"/>
			</g>
</symbol><symbol id="icon-user" viewBox="0 0 16 16">
<g>
				<path fill-rule="evenodd" clip-rule="evenodd" d="M11.5,9.7c-0.2-0.1-0.5-0.1-0.5-0.2c-0.1,0-0.2-0.1-0.2-0.1
					c0.6-0.7,0.9-1.6,1.1-2.1c0.6-0.6,0.9-1.6,0.9-2.4c0-0.6-0.2-1.1-0.5-1.3C12,1.5,10.2,0,8,0C5.8,0,4,1.6,3.7,3.6
					C3.4,4,3.3,4.4,3.3,5c0,1,0.3,1.9,0.9,2.4c0.2,0.5,0.6,1.3,1.1,2c-0.1,0-0.1,0.1-0.2,0.1c-0.1,0-0.3,0.1-0.4,0.1
					C3.4,10,0,11,0,14.7C0,15.4,0.6,16,1.3,16h13.4c0.7,0,1.3-0.6,1.3-1.3C16,11,12.8,10.1,11.5,9.7z M1.3,14.7c0-3.4,3.6-3.7,4.4-4
					C6.3,10.4,7,9.9,7,9.4C7,9.2,6.9,9.1,6.8,9C5.8,8.4,5.3,6.5,5.2,6.5C4.8,6.5,4.6,5.6,4.6,5c0-0.5,0.1-0.6,0.4-0.7c0,0,0,0,0-0.1
					c0-1.6,1.4-2.9,3-2.9c1.6,0,3,1.2,3,2.9c0,0,0,0,0,0.1c0.3,0.2,0.4,0.1,0.4,0.6c0,0.6-0.3,1.5-0.6,1.5c-0.1,0-0.4,2-1.6,2.6
					C9.1,9,9,9.2,9,9.4c0,0.4,0.8,1,1.3,1.2c0.9,0.4,4.3,0.7,4.3,4H1.3z"/>
			</g>
</symbol><symbol id="icon-user_b" viewBox="0 0 12 12">
<style type="text/css">
	.st0{fill:#4E4DC2;}
</style>
<path class="st0" d="M8.9006348,6.5375977C9.012207,6.3117676,9.0984497,6.09375,9.1659546,5.9029541
	C9.6534424,5.3483887,9.831543,4.534668,9.831543,3.9238281c0-0.4658203-0.1162109-0.8634033-0.3468628-1.185791
	C9.1472168,1.1395264,7.722168,0,6.0187378,0C4.2909546,0,2.8059082,1.2088623,2.4880981,2.8415527
	c-0.2052612,0.3200684-0.305603,0.7045898-0.305603,1.1677246c0,0.8267822,0.2484131,1.5458984,0.6871948,2.0080566
	c0.0646973,0.1564941,0.1425171,0.333252,0.2380981,0.5175781C1.9621582,6.9187012,0,7.8651123,0,10.423584
	C0,11.2927246,0.7115479,12,1.5871582,12h8.824707C11.2874756,12,12,11.2927246,12,10.423584
	C12,7.8317871,10.008728,6.9074707,8.9006348,6.5375977z M10.4118652,10.5600586h-8.824707
	c-0.081543,0-0.1471558-0.0615234-0.1471558-0.1364746c0-1.7011719,1.3059082-2.3006592,2.5800171-2.6616211
	c0.1209106-0.0332031,0.2830811-0.081543,0.4021606-0.1312256l0.9159546-0.510376L4.7681274,6.4550781
	c-0.2999878-0.3510742-0.4959106-0.8029785-0.6177979-1.112793L4.0847168,5.1740723L3.9468994,5.057373
	C3.7528076,4.8918457,3.6224976,4.4709473,3.6224976,4.0092773c0-0.3000488,0.0722046-0.3876953,0.1031494-0.425293
	L3.855957,3.4265137l0.0280762-0.2028809c0.1397095-1.0168457,1.0575562-1.7836914,2.1347046-1.7836914
	c1.0556641,0,1.9302979,0.7209473,2.0775146,1.7142334l0.0337524,0.2244873l0.1565552,0.1650391
	c0.0253296,0.0272217,0.1049805,0.111084,0.1049805,0.380127c0,0.4335938-0.1443481,0.8818359-0.3440552,1.0655518
	L7.9106445,5.1159668L7.852478,5.2927246c-0.1068726,0.322876-0.2849731,0.793457-0.5943604,1.1479492L6.6815796,7.1025391
	l0.7612305,0.4362793c0.0562744,0.0319824,0.1171875,0.064209,0.1950073,0.1032715
	c0.0628052,0.029541,0.2597046,0.0941162,0.4547119,0.1523438c1.2815552,0.3763428,2.4674683,0.9556885,2.4674683,2.6291504
	C10.5599976,10.4985352,10.4934082,10.5600586,10.4118652,10.5600586z"/>
</symbol><symbol id="icon-users" viewBox="0 0 25 16">
<g>
				<path d="M21.7,8.3c-0.1,0-0.3-0.1-0.4-0.1c-0.4-0.2-0.6-0.3-0.7-0.4c0.7-0.6,1-1.6,1.1-2.1
					c0.4-0.3,0.6-1.1,0.6-1.8c0-0.5-0.1-0.8-0.3-1c-0.1-1.7-1.4-3-3.1-3c-1.6,0-2.8,1.2-2.9,2.9c-0.2,0.1-0.3,0.3-0.3,0.7
					c-0.6-1.1-1.8-1.9-3.2-1.9c-1.4,0-2.5,0.8-3.2,1.9C9.3,3.3,9.2,3.1,9,3C8.9,1.3,7.6,0,6,0C4.4,0,3.2,1.2,3,2.9
					C2.8,3,2.6,3.3,2.6,3.8c0,0.6,0.2,1.4,0.7,1.8c0.1,0.5,0.4,1.6,1.2,2.2C4.3,7.9,4.1,8,3.8,8.2c-0.1,0-0.3,0.1-0.5,0.2
					C2.2,8.7,0,9.4,0,12.3C0,12.7,0.3,13,0.7,13H6c-0.2,0.5-0.2,1-0.2,1.6c0,0.8,0.6,1.4,1.3,1.4h10.7c0.7,0,1.3-0.6,1.3-1.4
					c0-0.6-0.1-1.2-0.3-1.6h5.4c0.4,0,0.7-0.3,0.7-0.7C25,9.4,22.7,8.7,21.7,8.3z M16.5,6.4c0.2,0.5,0.4,1,0.9,1.4
					c-0.1,0.1-0.3,0.2-0.7,0.4c-0.1,0-0.3,0.1-0.5,0.2c-0.1,0-0.3,0.1-0.5,0.2c0,0,0-0.1,0-0.1C16.2,8,16.5,7.2,16.5,6.4z M8.5,6.4
					c0,0.7,0.3,1.5,0.7,1.9c0,0.1,0,0.2,0.1,0.2C9.1,8.5,8.9,8.4,8.7,8.3c-0.1,0-0.3-0.1-0.4-0.1C8,8,7.7,7.9,7.6,7.8
					C8.1,7.4,8.3,6.8,8.5,6.4z M1.4,11.6c0.2-1.2,1.2-1.6,2.3-2c0.3-0.1,0.5-0.2,0.7-0.2c1.1-0.5,1.6-1.1,1.6-1.7
					c0-0.4-0.2-0.8-0.5-1C4.9,6.5,4.7,5.5,4.6,5.2c0-0.2-0.1-0.5-0.5-0.7C4.1,4.4,4,4.1,4,3.9c0,0,0,0,0,0c0.2-0.1,0.3-0.3,0.3-0.6
					l0-0.1c0-0.9,0.6-1.8,1.7-1.8c1.1,0,1.7,0.9,1.7,1.9c0,0,0,0,0,0c0,0.2,0.1,0.5,0.3,0.6c0,0,0,0,0,0c0,0.3-0.1,0.5-0.1,0.7
					C7.6,4.7,7.5,5.1,7.4,5.3C7.4,5.6,7.1,6.5,6.6,6.8C6.3,7,6.2,7.4,6.2,7.7C6.2,8.5,7,9,7.8,9.4c0.2,0.1,0.3,0.1,0.6,0.2
					c0.3,0.1,0.7,0.2,1.1,0.5c-0.7,0.2-1.8,0.6-2.6,1.5H1.4z M17.8,14.6H7.1c0-0.7,0.1-1.2,0.4-1.6h0.4v-0.5c0.8-0.9,2.1-1,2.6-1.3
					c0.3-0.2,0.8-0.4,1-0.7l0.1-0.1c0,0,0,0,0,0c0.1-0.1,0.1-0.2,0.1-0.3c0-0.2-0.1-0.3-0.2-0.4c-1-0.5-1.1-2.3-1.2-2.3
					c-0.3,0-0.5-0.8-0.5-1.3c0-0.4,0.1-0.4,0.4-0.5c0,0,0,0,0-0.1c0-1.4,0.9-2.5,2.3-2.5c1.4,0,2.4,1.2,2.4,2.6c0,0,0,0,0,0.1
					c0.2,0.1,0.3,0.2,0.3,0.6c0,0.5-0.2,1.3-0.5,1.3c-0.1,0-0.3,1.7-1.2,2.2c-0.1,0-0.2,0.1-0.2,0.3c0,0.1,0,0.2,0.1,0.3
					c0,0.1-0.1,0.1-0.1,0.2l0.7,0.4c0.2,0.1,0.3,0.2,0.5,0.3c0.4,0.2,1.4,0.4,2.3,1V13h0.7C17.7,13.4,17.8,14,17.8,14.6z M18.1,11.6
					c-0.8-0.9-1.9-1.3-2.5-1.5c0.3-0.2,0.7-0.3,1-0.4c0.3-0.1,0.5-0.2,0.7-0.2c1.1-0.5,1.6-1.1,1.6-1.7c0-0.4-0.2-0.8-0.5-1
					c-0.5-0.3-0.7-1.3-0.8-1.6c0-0.2-0.1-0.6-0.5-0.7C17.1,4.4,17,4.1,17,3.9c0,0,0,0,0,0c0.2-0.1,0.3-0.3,0.3-0.6c0,0,0,0,0-0.1
					c0-0.9,0.5-1.8,1.6-1.8c1,0,1.7,0.8,1.7,1.9c0,0,0,0,0,0c0,0.2,0.1,0.5,0.3,0.6c0,0,0,0,0,0c0,0.3-0.1,0.5-0.1,0.7
					c-0.3,0.1-0.4,0.5-0.4,0.7c-0.1,0.4-0.4,1.3-0.9,1.6c-0.3,0.2-0.5,0.5-0.5,0.9c0,0.8,0.8,1.3,1.6,1.7c0.2,0.1,0.3,0.1,0.6,0.2
					c1,0.3,2.1,0.8,2.3,2H18.1z"/>
			</g>
</symbol><symbol id="icon-vk" viewBox="0 0 24 14">
<g>
				<path style="fill-rule:evenodd;clip-rule:evenodd;" d="M23.7928467,12.4954834
					c-0.0650024-0.1101685-0.4632568-0.9977417-2.3837891-2.821228c-2.0105591-1.9083862-1.7409058-1.5996704,0.680542-4.9009399
					c1.4747925-2.0105591,2.064209-3.2379761,1.8800049-3.7634277c-0.175415-0.5009155-1.2603149-0.3685303-1.2603149-0.3685303
					l-3.6096191,0.0227051c0,0-0.2678223-0.0371704-0.4660645,0.0842896
					c-0.1940918,0.1185303-0.3186646,0.3959961-0.3186646,0.3959961s-0.5715332,1.555603-1.3331299,2.8790283
					c-1.6074219,2.791748-2.2501831,2.93927-2.5129395,2.7657471c-0.6113892-0.4040527-0.4584961-1.6229248-0.4584961-2.4890747
					c0-2.7055054,0.4011841-3.8336182-0.7813721-4.1256714c-0.3922119-0.0968628-0.6812744-0.1609497-1.6848145-0.1713257
					c-1.2880859-0.0133057-2.3779907,0.0040894-2.9953003,0.3132324c-0.4107666,0.2056274-0.727478,0.6640625-0.5343628,0.6904297
					c0.2385254,0.0324097,0.7787476,0.1491699,1.0651245,0.5477295C9.449707,2.069458,9.4367065,3.2254028,9.4367065,3.2254028
					S9.649292,6.4101563,8.9403687,6.8057861C8.4537964,7.0772095,7.7863159,6.5231934,6.3533325,3.9901733
					C5.6192017,2.6929321,5.0646362,1.258667,5.0646362,1.258667S4.9580078,0.9907227,4.7671509,0.847168
					C4.5358887,0.6734009,4.2127686,0.6185303,4.2127686,0.6185303L0.7824097,0.6413574
					c0,0-0.5147095,0.0145874-0.7039795,0.2436523c-0.1682129,0.2038574-0.0134277,0.6252441-0.0134277,0.6252441
					s2.6853027,6.4263306,5.7263184,9.664917c2.7885132,2.9697266,5.9545288,2.7749634,5.9545288,2.7749634h1.4349365
					c0,0,0.4333496-0.0490723,0.6548462-0.2928467c0.2036133-0.2241211,0.1971436-0.6447144,0.1971436-0.6447144
					s-0.0280151-1.9694214,0.8654785-2.2593994c0.8811035-0.2858887,2.0123291,1.9032593,3.2111206,2.7452393
					c0.9067383,0.6367798,1.5955811,0.4974976,1.5955811,0.4974976l3.2060547-0.0457764
					C22.9110107,13.9501343,24.5881348,13.8441162,23.7928467,12.4954834z"/>
			</g>
</symbol><symbol id="icon-vote+" viewBox="0 0 20 20">
<rect fill-rule="evenodd" clip-rule="evenodd" width="20" height="20"/>
<polygon fill-rule="evenodd" clip-rule="evenodd" fill="#FFFFFF" points="15.0000305,9.0003052 10.9999695,9.0003052 10.9999695,5 
	8.9999695,5 8.9999695,9.0003052 4.9999695,9.0003052 4.9999695,11 8.9999695,11 8.9999695,15 10.9999695,15 10.9999695,11 
	15.0000305,11 "/>
</symbol><symbol id="icon-vote" viewBox="0 0 20 20">
<rect width="20" height="20"/>
<polygon fill="#FFFFFF" points="15.0000305,9.0001526 4.9999695,9.0001526 4.9999695,10.9998474 15.0000305,10.9998474 "/>
</symbol><symbol id="icon-youtube" viewBox="0 0 22 16">
<g>
				<path style="fill-rule:evenodd;clip-rule:evenodd;" d="M21.7963867,3.7498779
					c-0.1202393-1.4984741-0.992981-3.3872681-2.7849121-3.4561157c-5.0131226-0.3446655-10.9452515-0.4396362-16.0459595,0
					c-1.5823364,0.1776123-2.6629639,2.149231-2.7848511,3.6547241c-0.2475586,3.1464844-0.2475586,4.9332886,0,8.086792
					c0.1218872,1.4966431,1.1750488,3.4752808,2.7848511,3.6880493c5.1608276,0.3446655,11.0672607,0.3922119,16.0459595,0
					c1.5582886-0.281311,2.6646729-2.1914063,2.7849121-3.6880493C22.0454712,8.8817749,22.0454712,6.8961792,21.7963867,3.7498779z
					 M8.2414551,11.9788818V3.913269l6.8718872,4.0328369L8.2414551,11.9788818z"/>
			</g>
</symbol><symbol id="icon-zn" viewBox="0 0 14 26">
<path d="M14,5.4313354v1.6343994v3.0928345l-9.046814,7.6044312L14,21.2727051V26L0,20.5686646v-0.5532227
	v-4.1740723l9.046814-7.6044312L0,4.7272339V0L14,5.4313354z"/>
</symbol></svg>