<svg width="16" height="16" viewBox="0 0 16 16" fill="none" xmlns="http://www.w3.org/2000/svg">
<path d="M3.53302 1.36185C1.87264 2.48144 0.655572 4.20727 0.19873 6.22241H3.53361V1.36185H3.53302Z" fill="#204A9A"/>
<path d="M15.8012 6.22242C14.9969 2.67666 11.8378 0.0258728 8.05552 0H7.9444C7.65513 0.00176406 7.36997 0.0194046 7.08893 0.0511577V6.22242H15.8012Z" fill="#204A9A"/>
<path d="M0.19812 9.77759C0.654962 11.7927 1.87262 13.5192 3.533 14.6387V9.77759H0.19812Z" fill="#204A9A"/>
<path d="M15.8012 9.77759H7.08893V15.9488C7.36997 15.9806 7.65513 15.9982 7.9444 16H8.05552C11.8384 15.9741 14.9969 13.3233 15.8012 9.77759Z" fill="#204A9A"/>
<path d="M15.9506 7.11208C15.9171 6.80984 15.8671 6.51289 15.8012 6.22241H7.08894V0.0511475C6.78732 0.0852526 6.4904 0.135822 6.19995 0.202856V7.11208H15.9506Z" fill="white"/>
<path d="M15.8012 9.77757C15.8671 9.48708 15.9171 9.19072 15.95 8.88907H6.19995V15.7977C6.4904 15.8647 6.78732 15.9147 7.08894 15.9494V9.77757H15.8012Z" fill="white"/>
<path d="M4.42258 0.842621C4.11449 0.99727 3.81699 1.17015 3.53359 1.36184V6.22241H0.198718C0.132867 6.51348 0.0828908 6.81043 0.0493774 7.11208H4.42258V0.842621Z" fill="white"/>
<path d="M0.0493774 8.88907C0.0828908 9.19072 0.132279 9.48708 0.19813 9.77757H3.53301V14.6387C3.81699 14.8304 4.1139 15.0033 4.42199 15.1579V8.88907H0.0493774Z" fill="white"/>
<path d="M15.9506 8.8891C15.9829 8.59744 16 8.30049 16 8.00001C16 7.69954 15.9829 7.40376 15.9506 7.1121H6.19998V0.202881C5.57616 0.346358 4.98056 0.562749 4.42259 0.842646V7.1121H0.0493882C0.0170507 7.40376 0 7.70012 0 8.00001C0 8.30049 0.0170507 8.59685 0.0493882 8.8891H4.42259V15.158C4.98115 15.4379 5.57675 15.6543 6.19998 15.7977V8.8891H15.9506Z" fill="#E52B12"/>
</svg>
