<svg width="184" height="20" viewBox="0 0 184 20" fill="none" xmlns="http://www.w3.org/2000/svg">
<path d="M2.9 1H7.2L4.3 19H0L2.9 1Z" fill="white"/>
<path d="M12 19H7.7L10.6 1H14.9L19.7 11.6L21.4 1H25.7L22.8 19H18.5L13.7 8.5L12 19Z" fill="white"/>
<path d="M26.9 9.99998C27.8 4.79998 31.9 0.599976 37.7 0.599976C43.5 0.599976 46.3 4.79998 45.5 9.99998C44.6 15.2 40.5 19.4 34.7 19.4C28.8 19.4 26.1 15.2 26.9 9.99998ZM31.2 9.99998C30.7 12.9 32.3 15.1 35.4 15.1C38.4 15.1 40.8 12.9 41.2 9.99998C41.7 7.19998 40.1 4.89998 37 4.89998C34 4.89998 31.7 7.19998 31.2 9.99998Z" fill="white"/>
<path d="M51 19H46.7L49.6 1H57.1C60.8 1 62.8 3.8 62.3 7.2C61.7 10.6 58.7 13.3 55.1 13.3H51.9L51 19ZM53.3 5L52.6 9.4H55.4C56.8 9.4 57.8 8.4 58 7.2C58.1 5.9 57.4 5 56.1 5H53.3Z" fill="#B8B8E7"/>
<path d="M67.1 19H62.8L65.7 1H73.2C76.9 1 78.9 3.8 78.3 7.2C77.9 9.7 76.2 11.8 73.8 12.7L76.5 19H72.1L69.6 13.4H68L67.1 19ZM69.4 5L68.7 9.4H71.5C72.9 9.4 73.9 8.4 74.1 7.2C74.3 5.9 73.5 5 72.2 5H69.4Z" fill="#B8B8E7"/>
<path d="M79.9 9.99998C80.8 4.79998 84.9 0.599976 90.7 0.599976C96.5 0.599976 99.3 4.79998 98.5 9.99998C97.6 15.2 93.5 19.4 87.7 19.4C81.8 19.4 79 15.2 79.9 9.99998ZM84.2 9.99998C83.7 12.9 85.3 15.1 88.4 15.1C91.4 15.1 93.8 12.9 94.2 9.99998C94.7 7.19998 93.1 4.89998 90 4.89998C87 4.89998 84.7 7.19998 84.2 9.99998Z" fill="#B8B8E7"/>
<path d="M101.5 5.90001C102 3.00001 104.5 0.700012 108.5 0.700012C110.9 0.700012 112.8 1.40001 114.3 2.70001L112.1 5.70001C110.9 4.80001 109.5 4.30001 107.7 4.30001C106.5 4.30001 105.4 4.80001 105.2 5.90001C104.7 8.70001 114.3 6.90001 113.2 13.7C112.7 16.7 109.1 19.4 105.4 19.4C103 19.4 100.6 18.5 99.1 17.2L101.4 13.9C102.6 14.8 104.7 15.5 106.3 15.5C107.8 15.5 109 14.8 109.2 13.6C109.6 10.9 100.4 12.8 101.5 5.90001Z" fill="#8383D4"/>
<path d="M119.2 19H114.9L117.8 1H125.3C129 1 131 3.8 130.5 7.2C129.9 10.6 126.9 13.3 123.3 13.3H120.1L119.2 19ZM121.5 5L120.8 9.4H123.6C125 9.4 126 8.4 126.2 7.2C126.4 5.9 125.6 5 124.3 5H121.5Z" fill="#8383D4"/>
<path d="M131.7 9.99998C132.6 4.79998 136.7 0.599976 142.5 0.599976C148.3 0.599976 151.1 4.79998 150.3 9.99998C149.4 15.2 145.3 19.4 139.5 19.4C133.7 19.4 130.9 15.2 131.7 9.99998ZM136 9.99998C135.5 12.9 137.1 15.1 140.2 15.1C143.2 15.1 145.5 12.9 146 9.99998C146.5 7.19998 144.9 4.89998 141.8 4.89998C138.8 4.89998 136.5 7.19998 136 9.99998Z" fill="#8383D4"/>
<path d="M155.8 19H151.5L154.4 1H161.9C165.6 1 167.6 3.8 167 7.2C166.6 9.7 164.9 11.8 162.5 12.7L165.2 19H160.8L158.3 13.4H156.6L155.8 19ZM158.1 5L157.4 9.4H160.2C161.6 9.4 162.6 8.4 162.8 7.2C163 5.9 162.3 5 160.9 5H158.1Z" fill="#8383D4"/>
<path d="M183.3 5H178.3L176 19H171.7L174 5H169L169.7 1H184L183.3 5Z" fill="#8383D4"/>
</svg>
