<svg width="16" height="10" viewBox="0 0 16 10" fill="none" xmlns="http://www.w3.org/2000/svg">
<path d="M12.7116 3.46977C12.0401 1.4591 10.0834 0 7.77916 0C6.72994 0 5.75322 0.303345 4.93643 0.822643C3.19818 0.566295 0.629474 0.45879 0.0871087 1.92483C-0.334702 3.06546 0.818201 4.33505 2.61988 5.45419C2.8586 7.99905 5.08067 10 7.77916 10C9.20362 10 10.4955 9.44233 11.4331 8.54159C11.9648 8.60829 12.4757 8.64713 12.9482 8.64713C14.448 8.64702 15.5808 8.28425 15.9117 7.38947C16.4775 5.8584 14.1952 4.29676 12.7116 3.46977ZM11.5496 5C11.5496 5.77309 11.2962 6.4892 10.8681 7.07908C9.88688 6.91012 8.73504 6.6247 7.43739 6.17654C6.05567 5.69935 4.92266 5.18072 4.02539 4.68217C4.19316 2.82565 5.81132 1.36364 7.77916 1.36364C9.85824 1.36364 11.5496 2.99494 11.5496 5ZM1.41605 2.38381C1.47021 2.23713 2.1141 1.96239 3.59797 2.05139C3.19125 2.58695 2.89293 3.20318 2.73259 3.87013C1.7628 3.17155 1.33534 2.60193 1.41605 2.38381ZM7.77916 8.63636C6.19951 8.63636 4.84582 7.69362 4.28558 6.36178C5.13502 6.77191 6.0474 7.14472 6.96241 7.46072C7.81388 7.75474 8.69483 8.00643 9.55937 8.20407C9.02876 8.47939 8.42274 8.63636 7.77916 8.63636ZM14.5828 6.9306C14.4978 7.16009 13.7227 7.34594 12.397 7.26366C12.7228 6.64739 12.9206 5.95831 12.9548 5.22838C14.2954 6.12674 14.6387 6.77979 14.5828 6.9306Z" fill="#4E4DC2"/>
</svg>
