<?xml version="1.0" encoding="utf-8"?>
<!-- Generator: Adobe Illustrator 17.1.0, SVG Export Plug-In . SVG Version: 6.00 Build 0)  -->
<!DOCTYPE svg PUBLIC "-//W3C//DTD SVG 1.1//EN" "http://www.w3.org/Graphics/SVG/1.1/DTD/svg11.dtd">
<svg version="1.1" id="Layer_1" xmlns="http://www.w3.org/2000/svg" xmlns:xlink="http://www.w3.org/1999/xlink" x="0px" y="0px"
	 width="244px" height="22px" viewBox="0 0 244 22" enable-background="new 0 0 244 22" xml:space="preserve">
<g>
	<path fill="#FFFFFF" d="M13.7,0L10,22H0L3.7,0H13.7z M39.9,0l-1.7,10h10.1L50,0H39.9z M24.2,22h10.1L36,12H25.9L24.2,22z M15.7,0
		L12,22h10.1l2-12h12.1l1.7-10H15.7z"/>
	<path fill="#FFFFFF" d="M62.9,2h4.3l-2.9,18H60L62.9,2z"/>
	<path fill="#FFFFFF" d="M72,20h-4.3l2.9-18h4.3l4.8,10.6L81.4,2h4.3l-2.9,18h-4.3L73.7,9.5L72,20z"/>
	<path fill="#FFFFFF" d="M86.9,11c0.9-5.2,5-9.4,10.8-9.4c5.8,0,8.6,4.2,7.8,9.4c-0.9,5.2-5,9.4-10.8,9.4
		C88.8,20.4,86.1,16.2,86.9,11z M91.2,11c-0.5,2.9,1.1,5.1,4.2,5.1c3,0,5.4-2.2,5.8-5.1c0.5-2.8-1.1-5.1-4.2-5.1
		C94,5.9,91.7,8.2,91.2,11z"/>
	<path fill="#B8B8E7" d="M111,20h-4.3l2.9-18h7.5c3.7,0,5.7,2.8,5.2,6.2c-0.6,3.4-3.6,6.1-7.2,6.1h-3.2L111,20z M113.3,6l-0.7,4.4
		h2.8c1.4,0,2.4-1,2.6-2.2c0.1-1.3-0.6-2.2-1.9-2.2H113.3z"/>
	<path fill="#B8B8E7" d="M127.1,20h-4.3l2.9-18h7.5c3.7,0,5.7,2.8,5.1,6.2c-0.4,2.5-2.1,4.6-4.5,5.5l2.7,6.3h-4.4l-2.5-5.6H128
		L127.1,20z M129.4,6l-0.7,4.4h2.8c1.4,0,2.4-1,2.6-2.2c0.2-1.3-0.6-2.2-1.9-2.2H129.4z"/>
	<path fill="#B8B8E7" d="M139.9,11c0.9-5.2,5-9.4,10.8-9.4s8.6,4.2,7.8,9.4c-0.9,5.2-5,9.4-10.8,9.4C141.8,20.4,139,16.2,139.9,11z
		 M144.2,11c-0.5,2.9,1.1,5.1,4.2,5.1c3,0,5.4-2.2,5.8-5.1c0.5-2.8-1.1-5.1-4.2-5.1C147,5.9,144.7,8.2,144.2,11z"/>
	<path fill="#8383D4" d="M161.5,6.9c0.5-2.9,3-5.2,7-5.2c2.4,0,4.3,0.7,5.8,2l-2.2,3c-1.2-0.9-2.6-1.4-4.4-1.4
		c-1.2,0-2.3,0.5-2.5,1.6c-0.5,2.8,9.1,1,8,7.8c-0.5,3-4.1,5.7-7.8,5.7c-2.4,0-4.8-0.9-6.3-2.2l2.3-3.3c1.2,0.9,3.3,1.6,4.9,1.6
		c1.5,0,2.7-0.7,2.9-1.9C169.6,11.9,160.4,13.8,161.5,6.9z"/>
	<path fill="#8383D4" d="M179.2,20h-4.3l2.9-18h7.5c3.7,0,5.7,2.8,5.2,6.2c-0.6,3.4-3.6,6.1-7.2,6.1h-3.2L179.2,20z M181.5,6
		l-0.7,4.4h2.8c1.4,0,2.4-1,2.6-2.2c0.2-1.3-0.6-2.2-1.9-2.2H181.5z"/>
	<path fill="#8383D4" d="M191.7,11c0.9-5.2,5-9.4,10.8-9.4s8.6,4.2,7.8,9.4c-0.9,5.2-5,9.4-10.8,9.4S190.9,16.2,191.7,11z M196,11
		c-0.5,2.9,1.1,5.1,4.2,5.1c3,0,5.3-2.2,5.8-5.1c0.5-2.8-1.1-5.1-4.2-5.1C198.8,5.9,196.5,8.2,196,11z"/>
	<path fill="#8383D4" d="M215.8,20h-4.3l2.9-18h7.5c3.7,0,5.7,2.8,5.1,6.2c-0.4,2.5-2.1,4.6-4.5,5.5l2.7,6.3h-4.4l-2.5-5.6h-1.7
		L215.8,20z M218.1,6l-0.7,4.4h2.8c1.4,0,2.4-1,2.6-2.2c0.2-1.3-0.5-2.2-1.9-2.2H218.1z"/>
	<path fill="#8383D4" d="M243.3,6h-5L236,20h-4.3L234,6h-5l0.7-4H244L243.3,6z"/>
</g>
</svg>
