<svg width="12" height="12" viewBox="0 0 12 12" fill="none" xmlns="http://www.w3.org/2000/svg">
<path d="M8.93 6.51C9.04 6.3 9.12 6.1 9.18 5.92C9.67 5.36 9.85 4.55 9.85 3.93C9.85 3.46 9.73 3.06 9.5 2.74C9.16 1.14 7.73 0 6.02 0C4.29 0 2.8 1.21 2.48 2.85C2.27 3.17 2.17 3.56 2.17 4.02C2.17 4.85 2.42 5.57 2.86 6.03C2.92 6.18 2.99 6.34 3.08 6.51C1.93 6.9 0 7.86 0 10.4C0 11.28 0.72 12 1.61 12H10.38C11.27 12 11.99 11.28 11.99 10.4C12 7.83 10.05 6.89 8.93 6.51ZM10.39 10.5H1.61C1.55 10.5 1.5 10.45 1.5 10.4C1.5 8.73 2.79 8.14 4.04 7.79C4.16 7.75 4.33 7.7 4.43 7.66C4.5 7.63 4.55 7.6 4.6 7.57L5.39 7.12L4.8 6.43C4.5 6.08 4.31 5.64 4.19 5.33L4.13 5.16L3.98 5.04C3.83 4.91 3.67 4.54 3.67 4.02C3.67 3.73 3.74 3.65 3.76 3.62L3.9 3.46L3.93 3.25C4.07 2.25 4.97 1.5 6.02 1.5C7.05 1.5 7.91 2.2 8.05 3.18L8.09 3.41L8.25 3.58C8.27 3.6 8.34 3.68 8.34 3.93C8.34 4.35 8.2 4.79 8.01 4.97L7.87 5.1L7.81 5.29C7.71 5.6 7.53 6.07 7.23 6.42L6.63 7.11L7.43 7.56C7.49 7.59 7.55 7.63 7.62 7.66C7.68 7.69 7.88 7.76 8.08 7.82C9.34 8.19 10.51 8.76 10.51 10.4C10.5 10.45 10.45 10.5 10.39 10.5Z" fill="#4E4DC2"/>
</svg>
