<svg width="14" height="12" viewBox="0 0 14 12" fill="none" xmlns="http://www.w3.org/2000/svg">
<path fill-rule="evenodd" clip-rule="evenodd" d="M2.45499 12C2.23471 11.9995 2.02417 11.9092 1.87198 11.75C1.63251 11.4971 1.57437 11.1225 1.72598 10.809L2.59 9.022C1.07431 8.27133 0.0834045 6.75934 0 5.07001C0 2.22702 3.07501 0 7 0C10.925 0 14 2.22699 14 5.07001C14 7.91302 10.925 10.141 7 10.141C6.88101 10.141 6.76099 10.141 6.642 10.134L2.793 11.925C2.68704 11.9741 2.57175 11.9997 2.45499 12ZM7.00098 1.64999C4.08798 1.64999 1.62598 3.215 1.62598 5.06799C1.62598 6.18399 2.51297 7.23801 3.99698 7.888C4.23599 7.99298 4.48111 8.0835 4.73099 8.159L4.375 9.36899L6.151 8.54398C6.2905 8.47812 6.44623 8.45447 6.599 8.47598C6.73099 8.48297 6.867 8.48599 6.99899 8.48599C9.91199 8.48599 12.374 6.91998 12.374 5.06799C12.374 3.216 9.91296 1.64999 7.00098 1.64999Z" fill="#B8B8E7"/>
</svg>
