<svg width="16" height="16" viewBox="0 0 16 16" fill="none" xmlns="http://www.w3.org/2000/svg">
<path d="M3.73765 14.7706H12.2624C12.8151 14.4219 13.3219 14.008 13.7723 13.5388H2.22778C2.67816 14.0074 3.18497 14.4219 3.73765 14.7706Z" fill="white"/>
<path d="M8.21313 7.3841H15.9765C15.9447 6.96431 15.8801 6.55391 15.7854 6.15469H8.21313V7.3841Z" fill="white"/>
<path d="M1.25699 12.3064H14.7429C14.9916 11.9184 15.2068 11.5074 15.3861 11.077H0.61377C0.793096 11.5074 1.00829 11.9184 1.25699 12.3064Z" fill="white"/>
<path d="M0.214057 9.84529H15.7854C15.8795 9.44607 15.9442 9.03567 15.9765 8.61588H0.0235596C0.0553091 9.03567 0.119984 9.44607 0.214057 9.84529Z" fill="white"/>
<path d="M8.21313 4.92237H15.3862C15.2069 4.49258 14.9911 4.08101 14.743 3.69296H8.21313V4.92237Z" fill="white"/>
<path d="M8.21313 2.46119H13.7722C13.3219 1.99201 12.8151 1.57809 12.2624 1.22943H8.21313V2.46119Z" fill="white"/>
<path d="M8.21313 1.22928H12.2624C11.0847 0.486104 9.69948 0.0416126 8.21313 0.00280762V1.22928Z" fill="#E60013"/>
<path d="M8.21313 3.69294H14.743C14.4602 3.2508 14.1344 2.83806 13.7722 2.46118H8.21313V3.69294Z" fill="#E60013"/>
<path d="M8.21313 6.15471H15.7854C15.6849 5.73021 15.5508 5.31805 15.3862 4.92294H8.21313V6.15471Z" fill="#E60013"/>
<path d="M8.21218 8.61293H0.0219727C0.0219727 8.61352 0.0219727 8.6147 0.0219727 8.61528H15.9755C15.9908 8.41185 15.999 8.20666 15.999 7.99911C15.999 7.79156 15.9914 7.58637 15.9755 7.38293H8.21218V8.61293Z" fill="#E60013"/>
<path d="M0.613796 11.077H15.3861C15.5514 10.6813 15.6854 10.2698 15.7854 9.84528H0.213989C0.314528 10.2698 0.448581 10.6813 0.613796 11.077Z" fill="#E60013"/>
<path d="M2.22767 13.5382H13.7722C14.1343 13.1608 14.4595 12.7486 14.7429 12.3065H1.25696C1.53976 12.7486 1.86549 13.1613 2.22767 13.5382Z" fill="#E60013"/>
<path d="M7.99975 16C9.56665 16 11.0277 15.549 12.2618 14.7706H3.73767C4.97179 15.549 6.43285 16 7.99975 16Z" fill="#E60013"/>
<path d="M1.05782 4.02222C1.03254 4.06631 1.00785 4.111 0.983154 4.15627H1.01432L1.05782 4.02222Z" fill="#0020BF"/>
<path d="M2.13373 4.67837L2.21193 4.92296H4.06928L4.14748 4.67837L4.22744 4.92296H6.08008L6.16416 4.67837L6.24412 4.92296H8.212V3.69296H6.40522L6.45284 3.84113L6.25 3.69296H6.07891L5.87665 3.84113L5.92427 3.69296H4.3903L4.4391 3.84113L4.23449 3.69296H4.06281L3.85938 3.84113L3.907 3.69296H2.37362L2.42242 3.84113L2.21781 3.69296H2.04613L1.84269 3.84113L1.89149 3.69296H1.25709C1.21887 3.75293 1.18125 3.81349 1.1442 3.87464L1.23416 4.15568H1.59281L1.30178 4.36382L1.41349 4.70718L1.1248 4.4967L0.833764 4.70718L0.945475 4.36382L0.891972 4.3256C0.791431 4.52021 0.697947 4.71953 0.613281 4.92296H2.05377L2.13373 4.67837ZM7.06138 4.15568L7.17309 3.81526L7.28245 4.15568H7.6411L7.35241 4.36382L7.46177 4.70718L7.17309 4.4967L6.88205 4.70718L6.99376 4.36382L6.70272 4.15568H7.06138ZM5.04469 4.15568L5.1564 3.81526L5.26812 4.15568H5.62442L5.33573 4.36382L5.44744 4.70718L5.1564 4.4967L4.86537 4.70718L4.97708 4.36382L4.68839 4.15568H5.04469ZM3.03036 4.15568L3.13972 3.81526L3.25143 4.15568H3.61008L3.31905 4.36382L3.43076 4.70718L3.13972 4.4967L2.85104 4.70718L2.9604 4.36382L2.67171 4.15568H3.03036Z" fill="#0020BF"/>
<path d="M2.67167 2.42768H3.03032L3.13968 2.08726L3.25139 2.42768H3.61004L3.56301 2.46119H4.73597L4.68894 2.42768H5.04524L5.15695 2.08726L5.26866 2.42768H5.62496L5.57792 2.46119H6.75089L6.70386 2.42768H7.06251L7.17422 2.08726L7.28358 2.42768H7.64223L7.5952 2.46119H8.21372V1.22943H7.45585L7.46232 1.25001L7.4341 1.22943H6.91199L6.88318 1.25001L6.89024 1.22943H6.16882L6.27818 1.56221H6.63448L6.34579 1.7727L6.45515 2.11313L6.16647 1.90264L5.87778 2.11313L5.98714 1.7727L5.69846 1.56221H6.05476L6.16412 1.22943H5.44093L5.44799 1.25001L5.41918 1.22943H4.89472L4.86591 1.25001L4.87297 1.22943H4.15037L4.25973 1.56221H4.61603L4.32735 1.7727L4.43906 2.11313L4.14802 1.90264L3.85933 2.11313L3.96869 1.7727L3.68001 1.56221H4.03866L4.14508 1.22943H3.73704C3.18436 1.57809 2.67755 1.99201 2.22717 2.46119H2.71811L2.67167 2.42768Z" fill="#0020BF"/>
<path d="M1.12439 7.26945L1.16084 7.3841H3.10168L3.13813 7.26945L3.17576 7.3841H5.11777L5.1554 7.26945L5.19303 7.3841H7.13504L7.17267 7.26945L7.20913 7.3841H8.21218V6.15469H7.36787L7.46136 6.4328L7.17267 6.22466L6.88163 6.4328L6.97277 6.15469H5.3553L5.44644 6.4328L5.1554 6.22466L4.86671 6.4328L4.95608 6.15469H3.33568L3.42681 6.4328L3.13578 6.22466L2.84709 6.4328L2.93646 6.15469H1.3237L1.41307 6.4328L1.12439 6.22466L0.833348 6.4328L0.924481 6.15469H0.213058C0.187188 6.26523 0.16367 6.37635 0.141915 6.48865L0.224817 6.74735H0.583467L0.294782 6.95784L0.404141 7.29826L0.115457 7.08778L0.0449029 7.13893C0.0360836 7.22007 0.0284402 7.30179 0.0219727 7.3841H1.08617L1.12439 7.26945ZM6.05203 6.74735L6.16374 6.40693L6.27545 6.74735H6.63175L6.34307 6.95784L6.45243 7.29826L6.16374 7.08778L5.87506 7.29826L5.98442 6.95784L5.69573 6.74735H6.05203ZM4.0377 6.74735L4.14706 6.40693L4.25877 6.74735H4.61507L4.32638 6.95784L4.4381 7.29826L4.14706 7.08778L3.85837 7.29826L3.96773 6.95784L3.67905 6.74735H4.0377ZM2.02102 6.74735L2.13273 6.40693L2.24209 6.74735H2.60074L2.3097 6.95784L2.42141 7.29826L2.13038 7.08778L1.84169 7.29826L1.9534 6.95784L1.66236 6.74735H2.02102Z" fill="#0020BF"/>
<path d="M5.6243 0.699076L5.33561 0.909563L5.44027 1.22941H6.16169L6.16404 1.22177L6.16639 1.22941H6.88781L6.99247 0.909563L6.70143 0.699076H7.06008L7.1718 0.358651L7.28115 0.699076H7.63981L7.35112 0.909563L7.45343 1.22941H8.2113V0.00293978C8.14074 0.00117592 8.0696 0 7.99846 0C7.01481 0 6.07291 0.17815 5.20215 0.502699L5.26682 0.699076H5.6243Z" fill="#0020BF"/>
<path d="M4.14804 1.22177L4.15039 1.22941H4.87181L4.97647 0.909568L4.70189 0.709076C4.36735 0.860768 4.04515 1.0348 3.73706 1.22941H4.1451L4.14804 1.22177Z" fill="#0020BF"/>
<path d="M6.91077 1.22943H7.43346L7.17358 1.03952L6.91077 1.22943Z" fill="#0020BF"/>
<path d="M4.89417 1.22943H5.41862L5.15639 1.03952L4.89417 1.22943Z" fill="#0020BF"/>
<path d="M5.09585 0.543854C4.97062 0.592654 4.84715 0.644394 4.72485 0.699074H5.0447L5.09585 0.543854Z" fill="#0020BF"/>
<path d="M2.04541 3.69294H2.21709L2.13125 3.63062L2.04541 3.69294Z" fill="#0020BF"/>
<path d="M6.07947 3.69294H6.25056L6.16472 3.63062L6.07947 3.69294Z" fill="#0020BF"/>
<path d="M4.06274 3.69294H4.23443L4.148 3.63062L4.06274 3.69294Z" fill="#0020BF"/>
<path d="M1.95427 3.50068L1.66323 3.2902H2.02189L2.1336 2.94977L2.24296 3.2902H2.60161L2.31057 3.50068L2.37348 3.69294H3.90687L3.9686 3.50068L3.67992 3.2902H4.03857L4.14793 2.94977L4.25964 3.2902H4.61594L4.32726 3.50068L4.39017 3.69294H5.92355L5.98529 3.50068L5.6966 3.2902H6.0529L6.16461 2.94977L6.27632 3.2902H6.63263L6.34394 3.50068L6.40567 3.69294H8.21246V2.46118H7.59393L7.35228 2.63522L7.46164 2.97858L7.17295 2.76809L6.88192 2.97858L6.99363 2.63522L6.74963 2.46118H5.57666L5.33501 2.63522L5.44672 2.97858L5.15568 2.76809L4.86465 2.97858L4.97636 2.63522L4.73471 2.46118H3.56291L3.31891 2.63522L3.43062 2.97858L3.13959 2.76809L2.8509 2.97858L2.96026 2.63522L2.71861 2.46118H2.22767C1.86549 2.83865 1.54035 3.2508 1.25696 3.69294H1.89136L1.95427 3.50068Z" fill="#0020BF"/>
<path d="M0.946014 6.09239L0.654977 5.8819H1.01363L1.12534 5.54148L1.2347 5.8819H1.59335L1.30467 6.09239L1.32466 6.15471H2.93742L2.95741 6.09239L2.66872 5.8819H3.02972L3.13908 5.54148L3.2508 5.8819H3.6071L3.31606 6.09239L3.33664 6.15471H4.95704L4.97703 6.09239L4.68834 5.8819H5.047L5.15636 5.54148L5.26807 5.8819H5.62437L5.33568 6.09239L5.35626 6.15471H6.97372L6.9943 6.09239L6.70326 5.8819H7.06192L7.17363 5.54148L7.28299 5.8819H7.63635L7.34766 6.09239L7.36883 6.15471H8.21313V4.92236H6.24525L6.277 5.01879H6.6333L6.34461 5.22928L6.45397 5.56969L6.16529 5.35921L5.8766 5.56969L5.98596 5.22928L5.69727 5.01879H6.04828L6.08121 4.92236H4.22798L4.25973 5.01879H4.61838L4.32734 5.22928L4.43905 5.56969L4.14801 5.35921L3.85933 5.56969L3.97104 5.22928L3.68 5.01879H4.03865L4.06923 4.92236H2.21188L2.24245 5.01879H2.60111L2.31007 5.22928L2.42178 5.56969L2.13309 5.35921L1.84206 5.56969L1.95377 5.22928L1.66273 5.01879H2.02138L2.05313 4.92236H0.61382C0.600297 4.95411 0.587362 4.98645 0.574427 5.01879H0.589714L0.56796 5.03466C0.503873 5.19517 0.445077 5.35921 0.390985 5.52443L0.405684 5.56969L0.382166 5.55264C0.318667 5.7502 0.262811 5.95069 0.2146 6.15471H0.926024L0.946014 6.09239Z" fill="#0020BF"/>
<path d="M8.21313 7.38412H7.21008L7.2824 7.61049H7.64105L7.35237 7.82097L7.46173 8.1614L7.17304 7.95091L6.88201 8.1614L6.99372 7.82097L6.70268 7.61049H7.06133L7.13541 7.38412H5.19399L5.26807 7.61049H5.62437L5.33569 7.82097L5.4474 8.1614L5.15636 7.95091L4.86532 8.1614L4.97703 7.82097L4.68835 7.61049H5.04465L5.11873 7.38412H3.1773L3.25139 7.61049H3.61004L3.319 7.82097L3.43071 8.1614L3.13968 7.95091L2.85099 8.1614L2.96035 7.82097L2.67166 7.61049H3.03032L3.10263 7.38412H1.1618L1.23412 7.61049H1.59277L1.30173 7.82097L1.41344 8.1614L1.12476 7.95091L0.833719 8.1614L0.94543 7.82097L0.654393 7.61049H1.01304L1.08713 7.38412H0.0235182C0.00823137 7.58756 0 7.79275 0 8.0003C0 8.20667 0.0076434 8.41128 0.0229302 8.61354H8.21255V7.38412H8.21313Z" fill="#0020BF"/>
<path d="M5.44739 1.24915L5.44092 1.22943H5.41858L5.44739 1.24915Z" fill="white"/>
<path d="M4.86536 1.24915L4.89417 1.22943H4.87241L4.86536 1.24915Z" fill="white"/>
<path d="M4.87241 1.2294H4.89417L5.15639 1.03949L5.41862 1.2294H5.44037L5.33572 0.909549L5.6244 0.699062H5.2681L5.20343 0.502686C5.16756 0.516208 5.13111 0.529731 5.09525 0.543842L5.04409 0.699062H4.72425C4.7166 0.70259 4.70896 0.70553 4.7019 0.709057L4.97648 0.909549L4.87241 1.2294Z" fill="white"/>
<path d="M6.88196 1.24915L6.91077 1.22943H6.88901L6.88196 1.24915Z" fill="white"/>
<path d="M7.46169 1.24915L7.45523 1.22943H7.43347L7.46169 1.24915Z" fill="white"/>
<path d="M7.64101 0.699068H7.28236L7.17359 0.358643L7.06129 0.699068H6.70264L6.99367 0.909555L6.88902 1.2294H6.91077L7.17359 1.03949L7.43346 1.2294H7.45522L7.35291 0.909555L7.64101 0.699068Z" fill="white"/>
<path d="M4.03871 1.56221H3.68005L3.96874 1.7727L3.85938 2.11313L4.14807 1.90264L4.4391 2.11313L4.32739 1.7727L4.61608 1.56221H4.25978L4.15042 1.22943H4.14571L4.03871 1.56221Z" fill="white"/>
<path d="M4.14563 1.22906H4.15014L4.14788 1.22174L4.14563 1.22906Z" fill="white"/>
<path d="M6.05298 1.56221H5.69727L5.98536 1.7727L5.87659 2.11313L6.16469 1.90264L6.45337 2.11313L6.34402 1.7727L6.6327 1.56221H6.2764L6.16763 1.22943H6.16234L6.05298 1.56221Z" fill="white"/>
<path d="M6.16235 1.22906H6.16742L6.16461 1.22174L6.16235 1.22906Z" fill="white"/>
<path d="M3.25148 2.42767L3.13976 2.08725L3.0304 2.42767H2.67175L2.71879 2.46119H3.56309L3.61013 2.42767H3.25148Z" fill="white"/>
<path d="M2.9604 2.63522L2.85104 2.97858L3.13973 2.76809L3.43076 2.97858L3.31905 2.63522L3.56305 2.46118H2.71875L2.9604 2.63522Z" fill="white"/>
<path d="M5.26798 2.42767L5.15627 2.08725L5.04456 2.42767H4.68884L4.73529 2.46119H5.57724L5.62428 2.42767H5.26798Z" fill="white"/>
<path d="M4.977 2.63522L4.86529 2.97858L5.15633 2.76809L5.44736 2.97858L5.33565 2.63522L5.5773 2.46118H4.73535L4.977 2.63522Z" fill="white"/>
<path d="M7.28236 2.42767L7.17359 2.08725L7.06129 2.42767H6.70264L6.75026 2.46119H7.59398L7.64101 2.42767H7.28236Z" fill="white"/>
<path d="M6.99366 2.63522L6.88195 2.97858L7.17357 2.76809L7.46167 2.97858L7.3529 2.63522L7.59396 2.46118H6.75024L6.99366 2.63522Z" fill="white"/>
<path d="M1.84265 3.84113L2.0455 3.69296H1.89145L1.84265 3.84113Z" fill="white"/>
<path d="M2.42236 3.84113L2.37356 3.69296H2.21716L2.42236 3.84113Z" fill="white"/>
<path d="M2.60158 3.29019H2.24293L2.13357 2.94977L2.02186 3.29019H1.66321L1.95425 3.50068L1.89133 3.69294H2.04538L2.13122 3.63062L2.21706 3.69294H2.37346L2.31055 3.50068L2.60158 3.29019Z" fill="white"/>
<path d="M3.85925 3.84113L4.06269 3.69296H3.90688L3.85925 3.84113Z" fill="white"/>
<path d="M4.4391 3.84113L4.3903 3.69296H4.2345L4.4391 3.84113Z" fill="white"/>
<path d="M4.61608 3.29019H4.25978L4.14807 2.94977L4.03871 3.29019H3.68005L3.96874 3.50068L3.907 3.69294H4.06281L4.14807 3.63062L4.23449 3.69294H4.3903L4.32739 3.50068L4.61608 3.29019Z" fill="white"/>
<path d="M6.45333 3.84113L6.40571 3.69296H6.25049L6.45333 3.84113Z" fill="white"/>
<path d="M5.87659 3.84113L6.07943 3.69296H5.92362L5.87659 3.84113Z" fill="white"/>
<path d="M6.6327 3.29019H6.2764L6.16469 2.94977L6.05298 3.29019H5.69727L5.98536 3.50068L5.92363 3.69294H6.07944L6.16469 3.63062L6.25053 3.69294H6.40575L6.34402 3.50068L6.6327 3.29019Z" fill="white"/>
<path d="M0.834351 4.7066L1.12539 4.49611L1.41407 4.7066L1.30236 4.36323L1.5934 4.1551H1.23475L1.14479 3.87405C1.11539 3.92285 1.08658 3.97165 1.05777 4.02104L1.01368 4.1551H0.982515C0.951941 4.21095 0.921368 4.26798 0.89197 4.32443L0.945474 4.36264L0.834351 4.7066Z" fill="white"/>
<path d="M2.85108 4.70658L3.13976 4.4961L3.4308 4.70658L3.31909 4.36381L3.61013 4.15567H3.25148L3.13976 3.81525L3.0304 4.15567H2.67175L2.96044 4.36381L2.85108 4.70658Z" fill="white"/>
<path d="M4.86523 4.70658L5.15627 4.4961L5.4473 4.70658L5.33559 4.36381L5.62428 4.15567H5.26798L5.15627 3.81525L5.04456 4.15567H4.68884L4.97694 4.36381L4.86523 4.70658Z" fill="white"/>
<path d="M6.88196 4.70658L7.17359 4.4961L7.46169 4.70658L7.35291 4.36381L7.64101 4.15567H7.28236L7.17359 3.81525L7.06129 4.15567H6.70264L6.99367 4.36381L6.88196 4.70658Z" fill="white"/>
<path d="M0.574068 5.01877C0.571815 5.02384 0.570125 5.02891 0.567871 5.03398L0.588716 5.01877H0.574068Z" fill="white"/>
<path d="M0.390653 5.52441C0.387836 5.53382 0.385019 5.54323 0.382202 5.55264L0.404737 5.56969L0.390653 5.52441Z" fill="white"/>
<path d="M2.05371 4.92235H2.21187L2.13367 4.67834L2.05371 4.92235Z" fill="white"/>
<path d="M2.02186 5.01879H1.66321L1.95425 5.22928L1.84253 5.56969L2.13357 5.35921L2.42226 5.56969L2.31055 5.22928L2.60158 5.01879H2.24293L2.21177 4.92236H2.05361L2.02186 5.01879Z" fill="white"/>
<path d="M4.0697 4.92235H4.22786L4.1479 4.67834L4.0697 4.92235Z" fill="white"/>
<path d="M4.03871 5.01879H3.68005L3.97109 5.22928L3.85938 5.56969L4.14807 5.35921L4.4391 5.56969L4.32739 5.22928L4.61843 5.01879H4.25978L4.22803 4.92236H4.06987L4.03871 5.01879Z" fill="white"/>
<path d="M6.08118 4.92235H6.24522L6.16467 4.67834L6.08118 4.92235Z" fill="white"/>
<path d="M6.04769 5.01879H5.69727L5.98536 5.22928L5.87659 5.56969L6.16469 5.35921L6.45337 5.56969L6.34402 5.22928L6.6327 5.01879H6.2764L6.24524 4.92236H6.0812L6.04769 5.01879Z" fill="white"/>
<path d="M0.834351 6.4328L1.12539 6.22466L1.41407 6.4328L1.3247 6.15469H0.925483L0.834351 6.4328Z" fill="white"/>
<path d="M1.59328 5.88189H1.23463L1.12527 5.54089L1.01356 5.88189H0.654907L0.945945 6.09238L0.925366 6.15471H1.32459L1.3046 6.09238L1.59328 5.88189Z" fill="white"/>
<path d="M2.84863 6.4328L3.13673 6.22466L3.42836 6.4328L3.33663 6.15469H2.93741L2.84863 6.4328Z" fill="white"/>
<path d="M3.60769 5.88189H3.25139L3.13967 5.54089L3.03032 5.88189H2.66931L2.95741 6.09238L2.93742 6.15471H3.33664L3.31606 6.09238L3.60769 5.88189Z" fill="white"/>
<path d="M4.86829 6.4328L5.15638 6.22466L5.44742 6.4328L5.35629 6.15469H4.95707L4.86829 6.4328Z" fill="white"/>
<path d="M5.62428 5.88189H5.26798L5.15627 5.54089L5.04749 5.88189H4.68884L4.97694 6.09238L4.95695 6.15471H5.35617L5.33559 6.09238L5.62428 5.88189Z" fill="white"/>
<path d="M6.88196 6.4328L7.17358 6.22466L7.46168 6.4328L7.3682 6.15469H6.97368L6.88196 6.4328Z" fill="white"/>
<path d="M7.63572 5.88189H7.28236L7.17359 5.54089L7.06129 5.88189H6.70264L6.99367 6.09238L6.97368 6.15471H7.3682L7.34762 6.09238L7.63572 5.88189Z" fill="white"/>
<path d="M0.405748 7.29826L0.296388 6.95783L0.585074 6.74735H0.226423L0.143521 6.48865C0.102364 6.70266 0.070027 6.91962 0.0465088 7.13892L0.117063 7.08777L0.405748 7.29826Z" fill="white"/>
<path d="M1.84253 7.2983L2.13122 7.08781L2.42226 7.2983L2.31055 6.95787L2.60158 6.74739H2.24293L2.13357 6.40637L2.02186 6.74739H1.66321L1.95425 6.95787L1.84253 7.2983Z" fill="white"/>
<path d="M3.85938 7.2983L4.14807 7.08781L4.4391 7.2983L4.32739 6.95787L4.61608 6.74739H4.25978L4.14807 6.40637L4.03871 6.74739H3.68005L3.96874 6.95787L3.85938 7.2983Z" fill="white"/>
<path d="M5.87659 7.2983L6.16469 7.08781L6.45337 7.2983L6.34402 6.95787L6.6327 6.74739H6.2764L6.16469 6.40637L6.05298 6.74739H5.69727L5.98536 6.95787L5.87659 7.2983Z" fill="white"/>
<path d="M1.08765 7.38412H1.16173L1.12528 7.26947L1.08765 7.38412Z" fill="white"/>
<path d="M1.01356 7.6099H0.654907L0.945945 7.82039L0.834233 8.16081L1.12527 7.95032L1.41396 8.16081L1.30225 7.82039L1.59328 7.6099H1.23463L1.16172 7.38412H1.08764L1.01356 7.6099Z" fill="white"/>
<path d="M3.10327 7.38412H3.17735L3.13972 7.26947L3.10327 7.38412Z" fill="white"/>
<path d="M3.0304 7.6099H2.67175L2.96044 7.82039L2.85108 8.16081L3.13976 7.95032L3.4308 8.16081L3.31909 7.82039L3.61013 7.6099H3.25148L3.17739 7.38412H3.10331L3.0304 7.6099Z" fill="white"/>
<path d="M5.11877 7.38412H5.19403L5.1564 7.26947L5.11877 7.38412Z" fill="white"/>
<path d="M5.04456 7.6099H4.68884L4.97694 7.82039L4.86523 8.16081L5.15627 7.95032L5.4473 8.16081L5.33559 7.82039L5.62428 7.6099H5.26798L5.1939 7.38412H5.11864L5.04456 7.6099Z" fill="white"/>
<path d="M7.13599 7.38412H7.21007L7.17362 7.26947L7.13599 7.38412Z" fill="white"/>
<path d="M7.06129 7.6099H6.70264L6.99367 7.82039L6.88196 8.16081L7.17359 7.95032L7.46169 8.16081L7.35291 7.82039L7.64101 7.6099H7.28236L7.21004 7.38412H7.13596L7.06129 7.6099Z" fill="white"/>
</svg>
