<svg width="16" height="16" viewBox="0 0 16 16" fill="none" xmlns="http://www.w3.org/2000/svg">
<path d="M7.99967 0C4.51663 0 1.55393 2.22666 0.455627 5.33352H15.5437C14.4454 2.22666 11.4827 0 7.99967 0Z" fill="#FFCA00"/>
<path d="M0 8C0 8.93547 0.1611 9.83272 0.456252 10.6671H15.5437C15.8389 9.83272 16 8.93547 16 8C16 7.06512 15.8389 6.16787 15.5443 5.33353H0.455664C0.161099 6.16787 0 7.06512 0 8Z" fill="#003DC9"/>
<path d="M7.99963 16C11.4827 16 14.4448 13.7739 15.5431 10.6671H0.456177C1.55448 13.7739 4.51659 16 7.99963 16Z" fill="#E60013"/>
<path d="M3.69582 9.31764L3.53707 8.75906L3.33717 9.3047L2.75745 9.28413L3.21487 9.64279L3.01497 10.1884L3.49827 9.86387L3.9557 10.2225L3.7946 9.66337L4.2779 9.33881L3.69582 9.31764Z" fill="white"/>
<path d="M4.60018 7.95355L4.64192 7.37381L4.2674 7.81832L3.72942 7.59959L4.03633 8.09349L3.6618 8.538L4.22859 8.39806L4.5355 8.89137L4.57666 8.30928L5.1411 8.16934L4.60018 7.95355Z" fill="white"/>
<path d="M5.91773 6.97868L6.15468 6.44833L5.65022 6.73938L5.21866 6.34955L5.34095 6.91871L4.83649 7.20976L5.41386 7.26973L5.53615 7.83889L5.77251 7.30854L6.34929 7.36851L5.91773 6.97868Z" fill="white"/>
<path d="M7.31881 6.19611L7.046 5.68457L6.96545 6.26137L6.39337 6.36015L6.91606 6.61769L6.83551 7.19155L7.23826 6.7735L7.76095 7.02809L7.48755 6.51597L7.89324 6.09733L7.31881 6.19611Z" fill="white"/>
<path d="M9.0733 6.26137L8.99275 5.68457L8.71994 6.19611L8.14551 6.09733L8.55061 6.51597L8.2778 7.02809L8.80049 6.7735L9.20324 7.19155L9.12269 6.61769L9.64479 6.36015L9.0733 6.26137Z" fill="white"/>
<path d="M10.6249 7.26973L11.2017 7.20976L10.6978 6.91871L10.8195 6.34955L10.3885 6.73938L9.88407 6.44833L10.1204 6.97868L9.68945 7.36851L10.2662 7.30854L10.5026 7.83889L10.6249 7.26973Z" fill="white"/>
<path d="M11.8126 8.39806L12.3765 8.538L12.0025 8.09349L12.3089 7.59959L11.7709 7.81832L11.3969 7.37381L11.4387 7.95355L10.8978 8.16934L11.4616 8.30928L11.5034 8.89137L11.8126 8.39806Z" fill="white"/>
<path d="M12.8239 9.64279L13.2813 9.28413L12.7016 9.3047L12.5017 8.75906L12.3429 9.31764L11.7609 9.33881L12.2442 9.66337L12.0831 10.2225L12.5405 9.86387L13.0238 10.1884L12.8239 9.64279Z" fill="white"/>
</svg>
