<svg width="16" height="16" viewBox="0 0 16 16" fill="none" xmlns="http://www.w3.org/2000/svg">
<path d="M16 7.98525C16 5.29109 14.6718 2.90911 12.6369 1.4566V14.5145C14.6712 13.0614 16 10.6794 16 7.98525Z" fill="#FF0000"/>
<path d="M0 7.98525C0 10.6794 1.32819 13.0614 3.3631 14.5139V1.4566C1.32819 2.9097 0 5.29109 0 7.98525Z" fill="#FF0000"/>
<path d="M3.3631 1.45663V14.5145C4.6713 15.4487 6.27054 16 7.99971 16C9.72889 16 11.3281 15.4487 12.6363 14.5145V1.45663C11.4945 0.640847 10.1293 0.118981 8.65058 0H7.34944C5.87014 0.118981 4.5055 0.640847 3.3631 1.45663ZM9.06039 4.96775L9.58014 4.70741L9.19797 6.75129C9.11742 7.12355 9.37494 7.12355 9.50194 6.96216L10.3986 5.95435L10.5414 6.47504C10.5691 6.56104 10.6561 6.61228 10.7443 6.59461L11.8749 6.35489L11.5786 7.44338C11.5133 7.68547 11.4639 7.78737 11.6409 7.8498L12.0437 8.04241L10.097 9.6357C10.0205 9.69872 9.98642 9.79944 10.0088 9.89604L10.1804 10.4586C9.51017 10.3885 8.90928 10.2712 8.23901 10.1982C8.17904 10.1929 8.0885 10.2972 8.0885 10.3649L8.14024 12.427H7.8151L7.91152 10.3596C7.91152 10.2919 7.81274 10.1982 7.75277 10.1982C7.0825 10.2636 6.48161 10.3802 5.81134 10.4586L5.98009 9.89604C6.00243 9.79944 5.96833 9.69872 5.89189 9.6357L3.94517 8.04241L4.34792 7.8498C4.52725 7.80033 4.47551 7.68606 4.41319 7.45163L4.11686 6.36313L5.2475 6.60286C5.3351 6.61994 5.42153 6.5687 5.4474 6.48329L5.59321 5.9626L6.48691 6.96982C6.61449 7.13121 6.87143 7.13121 6.79088 6.75895L6.40871 4.72566L6.92846 4.98601C7.07133 5.0667 7.21421 5.08261 7.29476 4.93653L7.98325 3.58769L8.68997 4.91827C8.7717 5.06376 8.91457 5.04844 9.06039 4.96775Z" fill="white"/>
<path d="M7.29536 4.93653C7.21481 5.08261 7.07194 5.0667 6.92906 4.98601L6.40931 4.72566L6.79148 6.75895C6.87203 7.13121 6.61451 7.13121 6.48751 6.96982L5.59323 5.96202L5.44742 6.48271C5.42096 6.56811 5.33453 6.61995 5.24751 6.60228L4.11687 6.36255L4.4132 7.45105C4.47553 7.68547 4.52785 7.79974 4.34794 7.84922L3.94519 8.04183L5.89191 9.63511C5.96835 9.69814 6.00245 9.79886 5.9801 9.89546L5.81136 10.458C6.48163 10.3796 7.08252 10.2624 7.75279 10.1976C7.81276 10.1976 7.91154 10.2913 7.91154 10.359L7.81511 12.4265H8.14025L8.08851 10.3643C8.08851 10.2966 8.17965 10.1923 8.23903 10.1976C8.9093 10.2707 9.51019 10.3879 10.1805 10.458L10.0088 9.89546C9.98643 9.79886 10.0205 9.69814 10.097 9.63511L12.0437 8.04183L11.6409 7.84922C11.464 7.78678 11.5134 7.68547 11.5786 7.4428L11.8749 6.3543L10.7443 6.59403C10.6561 6.6117 10.5691 6.55987 10.5415 6.47446L10.3986 5.95377L9.50196 6.96157C9.37437 7.12296 9.11743 7.12296 9.19798 6.75071L9.58016 4.70681L9.0604 4.96716C8.91459 5.04785 8.77172 5.06376 8.69117 4.91768L7.98444 3.5871L7.29536 4.93653Z" fill="#FF0000"/>
</svg>
