<svg width="16" height="16" viewBox="0 0 16 16" fill="none" xmlns="http://www.w3.org/2000/svg">
<path d="M10.6671 0.445374V15.5434C13.7739 14.4443 16 11.4796 16 7.9941C16 4.50862 13.7739 1.54444 10.6671 0.445374Z" fill="#E52522"/>
<path d="M8.41746 0H7.58313C6.79818 0.0405972 6.04322 0.194749 5.33353 0.445392V15.544C6.16787 15.8388 7.06512 16 8 16C8.93547 16 9.83272 15.8388 10.6671 15.5434V0.445392C9.95796 0.194749 9.20241 0.0405972 8.41746 0Z" fill="white"/>
<path d="M0 7.99469C0 11.4802 2.22666 14.4449 5.33352 15.544V0.445374C2.22666 1.54444 0 4.50921 0 7.99469Z" fill="#1F4F9E"/>
</svg>
