<svg width="16" height="16" viewBox="0 0 16 16" fill="none" xmlns="http://www.w3.org/2000/svg">
<path d="M16 7.99971C16 7.69926 15.9829 7.40294 15.9506 7.11072H7.70338V5.33333H15.5437C15.3197 4.70069 15.0193 4.10392 14.6518 3.55536H7.70338V1.77797H13.0273C11.6538 0.666151 9.90468 0 7.9997 0C3.58182 0 0 3.58182 0 7.99971C0 8.30015 0.0170507 8.59648 0.0493882 8.8887H15.9506C15.9824 8.59707 16 8.30015 16 7.99971Z" fill="white"/>
<path d="M2.97217 14.222C4.34622 15.3339 6.09479 16 7.99976 16C9.90473 16 11.6539 15.3339 13.0274 14.222H2.97217Z" fill="white"/>
<path d="M15.5438 10.6667H0.455688C0.679699 11.2993 0.980144 11.8961 1.34762 12.4447H14.6524C15.0193 11.8961 15.3204 11.2993 15.5438 10.6667Z" fill="white"/>
<path d="M7.70337 3.55535H14.6518C14.2026 2.8839 13.6541 2.28478 13.0273 1.77737H7.70337V3.55535Z" fill="#0036D9"/>
<path d="M7.70337 7.1107H15.95C15.8818 6.49452 15.7436 5.89893 15.5437 5.33273H7.70337V7.1107Z" fill="#0036D9"/>
<path d="M15.9501 8.8887H0.0494385C0.117641 9.50488 0.25581 10.1005 0.455714 10.6667H15.5438C15.7443 10.1005 15.8825 9.50488 15.9501 8.8887Z" fill="#0036D9"/>
<path d="M14.6523 12.4441H1.34753C1.79673 13.1155 2.34529 13.7146 2.97205 14.222H13.0278C13.654 13.7152 14.2026 13.1155 14.6523 12.4441Z" fill="#0036D9"/>
<path d="M6.25587 5.88658C6.01305 5.83426 5.78904 5.71667 5.60853 5.54616L7.12663 5.27041L5.53857 4.98173C5.82667 4.8759 6.07655 4.6854 6.25587 4.43611C6.35524 4.24796 6.5669 4.14742 6.77562 4.18917H6.88733L6.77562 4.13978C6.55573 3.99691 6.26881 4.01043 6.06361 4.17329C5.8543 4.30676 5.61265 4.38143 5.36453 4.38907L6.24294 3.12085L4.9124 4.04159C5.04233 3.75879 5.0829 3.44364 5.0294 3.13732C4.9759 2.94212 5.05115 2.73398 5.21637 2.61757L5.29692 2.53702L5.18756 2.57347C4.9318 2.62521 4.73719 2.83393 4.70426 3.09322C4.65252 3.33605 4.53493 3.56006 4.36383 3.74056L4.08573 2.22775L3.79705 3.82111C3.68945 3.53066 3.49719 3.2796 3.24613 3.09851C3.06622 3.00032 2.96921 2.79866 3.00448 2.59699V2.48234L2.9551 2.58346C2.81222 2.80336 2.82575 3.09028 2.98861 3.29548C3.12208 3.50479 3.19675 3.74644 3.20439 3.99455L1.93323 3.1185L2.85338 4.44904C2.57234 4.31911 2.25896 4.27736 1.9544 4.32969C1.75978 4.38202 1.55282 4.30852 1.43465 4.14507L1.3541 4.06217L1.39055 4.17153C1.44229 4.42729 1.65101 4.6219 1.9103 4.65483C2.15313 4.70657 2.37714 4.82416 2.55764 4.99525L1.04248 5.271L2.63584 5.56203C2.34598 5.66904 2.09433 5.86013 1.91324 6.1106C1.81505 6.29169 1.61221 6.38987 1.40878 6.35518H1.29706L1.39819 6.40692C1.50344 6.47101 1.62338 6.50864 1.74626 6.51628C1.87796 6.50805 2.00496 6.46337 2.11256 6.38635C2.32128 6.25053 2.56293 6.17468 2.81164 6.16821L1.93323 7.4235L3.26377 6.51628C3.13442 6.79262 3.09033 7.1013 3.13619 7.40233C3.19145 7.59636 3.11855 7.80449 2.95451 7.92208L2.87161 8.00263L2.98097 7.96618C3.23673 7.91444 3.43134 7.70572 3.46426 7.44643C3.51659 7.2036 3.63418 6.97959 3.80469 6.79909L4.08044 8.31719L4.36913 6.72677C4.47731 7.01604 4.66898 7.26651 4.92004 7.44643C5.09995 7.54579 5.19697 7.74805 5.16169 7.95089V8.0626L5.21343 7.96147C5.35924 7.74158 5.34572 7.45231 5.17991 7.24652C5.04645 7.03721 4.97178 6.79556 4.96414 6.54745L6.23235 7.42585L5.3122 6.09531C5.59266 6.22525 5.90604 6.26817 6.21119 6.2176C6.4058 6.16292 6.61452 6.23701 6.73094 6.40222L6.81149 6.48277L6.77504 6.37106C6.72271 6.11471 6.51457 5.92127 6.25587 5.88658Z" fill="#AB6D29"/>
<path d="M3.35246 7.31355C3.3454 7.49935 3.28661 7.67926 3.18372 7.83331C3.31307 7.741 3.39773 7.59871 3.41772 7.44114C3.47534 7.17656 3.60704 6.93432 3.79695 6.74206L3.70582 6.24289C3.51591 6.57156 3.39538 6.93609 3.35246 7.31355Z" fill="#FFD226"/>
<path d="M3.29841 7.29534C3.34721 6.92316 3.46891 6.56451 3.65706 6.23996L3.35015 6.4528V6.47867C3.21198 6.76206 3.16435 7.08191 3.21492 7.39353C3.24902 7.53287 3.22021 7.67986 3.13672 7.79627C3.23961 7.64987 3.29547 7.47525 3.29841 7.29534Z" fill="#FFD226"/>
<path d="M4.11157 6.23527V7.87507L4.42084 6.17294C4.32206 6.21116 4.2174 6.23174 4.11157 6.23527Z" fill="#FFD226"/>
<path d="M4.02565 6.22994H3.99214C3.90924 6.22289 3.8281 6.20466 3.75049 6.17526L4.05975 7.87739V6.23465L4.02565 6.22994Z" fill="#FFD226"/>
<path d="M3.13673 5.68436C2.76515 5.78431 2.41884 5.96187 2.12075 6.20411C1.98493 6.32817 1.81795 6.41166 1.63745 6.44576C1.8009 6.47516 1.96906 6.43106 2.09723 6.3264C2.32477 6.17883 2.58994 6.10063 2.86157 6.10004L3.13673 5.68436Z" fill="#FFD226"/>
<path d="M3.0874 5.64259L2.7211 5.57733H2.69759C2.3989 5.67964 2.13903 5.8719 1.95441 6.12824C1.88621 6.25289 1.76803 6.34167 1.62927 6.37283C1.80331 6.34755 1.96617 6.27171 2.09728 6.1547C2.39009 5.91952 2.72698 5.74549 3.0874 5.64259Z" fill="#FFD226"/>
<path d="M3.39726 5.93361L3.37668 5.90774L3.35316 5.88187C3.30083 5.8172 3.25615 5.74664 3.22087 5.67139L2.22546 7.09541L3.39726 5.93361Z" fill="#FFD226"/>
<path d="M3.42312 5.97009L2.26367 7.13189L3.68535 6.14707C3.58892 6.10297 3.50014 6.043 3.42312 5.97009Z" fill="#FFD226"/>
<path d="M1.92619 4.60312C2.18725 4.66309 2.42654 4.7942 2.61763 4.98235L3.13738 4.89121C2.80577 4.69895 2.43712 4.57842 2.05613 4.53785C1.87034 4.53197 1.68983 4.47318 1.53638 4.36911C1.6281 4.49787 1.76921 4.58254 1.92619 4.60312Z" fill="#FFD226"/>
<path d="M3.1162 4.82887L2.90571 4.52196H2.88219C2.5988 4.38262 2.27836 4.33617 1.96733 4.38967C1.83034 4.42671 1.68335 4.40614 1.56165 4.33264C1.70687 4.43083 1.87738 4.4861 2.05259 4.49139C2.42653 4.53196 2.78812 4.6472 3.1162 4.82887Z" fill="#FFD226"/>
<path d="M3.12137 5.24514C3.12137 5.2322 3.12137 5.22162 3.12137 5.21162C3.12137 5.20104 3.12137 5.18811 3.12137 5.17811C3.12902 5.09521 3.14724 5.01407 3.17605 4.93646L1.48157 5.24573H3.12137V5.24514Z" fill="#FFD226"/>
<path d="M3.13666 5.29688H1.48157L3.1837 5.60612C3.15077 5.50618 3.1349 5.40153 3.13666 5.29688Z" fill="#FFD226"/>
<path d="M3.7141 4.27265L3.78171 3.91635V3.89283C3.67941 3.58651 3.48068 3.32134 3.21493 3.13673C3.09204 3.06558 3.00385 2.9474 2.97034 2.80923C3.00209 2.98151 3.08205 3.14143 3.2014 3.26901C3.43776 3.56652 3.6118 3.90753 3.7141 4.27265Z" fill="#FFD226"/>
<path d="M3.25663 4.03631L3.67232 4.32499C3.57354 3.95223 3.39657 3.60475 3.15257 3.30607C3.02968 3.1726 2.94619 3.00798 2.91092 2.83041C2.88563 2.98681 2.9262 3.14673 3.02263 3.27197C3.17256 3.49892 3.25369 3.76467 3.25663 4.03631Z" fill="#FFD226"/>
<path d="M3.42312 4.57192L3.44899 4.55134L3.4778 4.52783C3.5413 4.47491 3.61068 4.43023 3.68593 4.39554L2.26367 3.41013L3.42312 4.57192Z" fill="#FFD226"/>
<path d="M3.39723 4.60783L2.22485 3.44897L3.20968 4.87065C3.2573 4.77364 3.3208 4.68485 3.39723 4.60783Z" fill="#FFD226"/>
<path d="M4.82123 3.22788C4.82653 3.04209 4.88415 2.86217 4.98763 2.70813C4.85828 2.80044 4.77361 2.94272 4.75362 3.1003C4.69541 3.36546 4.56371 3.60829 4.37439 3.80231L4.46552 4.29855C4.65661 3.97047 4.77773 3.60594 4.82123 3.22788Z" fill="#FFD226"/>
<path d="M4.87294 3.23551C4.83002 3.61003 4.71243 3.97221 4.52722 4.30088L4.83413 4.09039V4.06687C4.97348 3.78348 5.0211 3.46363 4.96936 3.15202C4.93291 3.01561 4.95349 2.87039 5.0264 2.74927C4.93056 2.8939 4.87705 3.06265 4.87294 3.23551Z" fill="#FFD226"/>
<path d="M4.14571 4.31206H4.17687C4.25918 4.32029 4.34032 4.33852 4.41852 4.36674L4.10925 2.66461V4.30736H4.14277L4.14571 4.31206Z" fill="#FFD226"/>
<path d="M4.05975 4.30913V2.66638L3.75049 4.36851C3.84926 4.33147 3.95392 4.31148 4.05975 4.30913Z" fill="#FFD226"/>
<path d="M5.03406 4.85768C5.40564 4.75832 5.75254 4.58134 6.05004 4.33793C6.1841 4.21505 6.3499 4.13156 6.52805 4.09628C6.37107 4.071 6.20997 4.11157 6.08356 4.20799C5.85661 4.35498 5.59261 4.43435 5.32216 4.43671L5.03406 4.85768Z" fill="#FFD226"/>
<path d="M5.0835 4.89943L5.44979 4.95646H5.47566C5.77552 4.85416 6.03539 4.66072 6.21884 4.40261C6.28939 4.28031 6.40698 4.19212 6.54398 4.15802C6.37112 4.19036 6.21178 4.2715 6.08419 4.39203C5.78787 4.62544 5.44744 4.79771 5.0835 4.89943Z" fill="#FFD226"/>
<path d="M5.0553 5.71552L5.26579 6.02243H5.2893C5.57329 6.16236 5.89431 6.2094 6.20651 6.15766C6.34233 6.12003 6.48697 6.14061 6.60691 6.21469C6.46286 6.11532 6.29294 6.05947 6.11832 6.05359C5.74497 6.01243 5.38338 5.89719 5.0553 5.71552Z" fill="#FFD226"/>
<path d="M6.25586 5.93892C5.99069 5.88072 5.74787 5.74901 5.55384 5.55969L5.05762 5.65083C5.38687 5.83838 5.7514 5.95597 6.12828 5.99654C6.31407 6.00183 6.49398 6.05945 6.64803 6.16293C6.55396 6.03711 6.41167 5.95597 6.25586 5.93892Z" fill="#FFD226"/>
<path d="M4.4573 6.26877L4.38733 6.648V6.67152C4.4961 6.96843 4.69483 7.22361 4.95647 7.40176C5.08053 7.46996 5.16931 7.58872 5.20106 7.72689C5.1699 7.55462 5.08993 7.3947 4.96999 7.26711C4.73363 6.97196 4.5596 6.63271 4.4573 6.26877Z" fill="#FFD226"/>
<path d="M4.91471 6.51571L4.49902 6.22702C4.59898 6.59861 4.77654 6.94491 5.01877 7.243C5.14225 7.37706 5.22573 7.54227 5.26042 7.72101C5.28688 7.56403 5.24631 7.40293 5.14871 7.27652C4.99878 7.05133 4.91765 6.78675 4.91471 6.51571Z" fill="#FFD226"/>
<path d="M4.74831 4.57192L5.91011 3.41013L4.48608 4.39495C4.58251 4.43905 4.67129 4.49843 4.74831 4.57192Z" fill="#FFD226"/>
<path d="M4.78479 4.60784L4.80831 4.63371L4.82889 4.65958C4.88239 4.72249 4.92708 4.79246 4.96118 4.86772L5.946 3.44604L4.78479 4.60784Z" fill="#FFD226"/>
<path d="M5.04999 5.24512H6.6898L4.98767 4.93527C5.02471 5.03464 5.04529 5.13929 5.04999 5.24512Z" fill="#FFD226"/>
<path d="M5.04992 5.29689C5.04874 5.30806 5.04874 5.31923 5.04992 5.3304C5.04992 5.3304 5.04992 5.35098 5.04992 5.36391C5.04228 5.44623 5.02405 5.52795 4.99524 5.60556L6.69737 5.29395L5.04992 5.29689Z" fill="#FFD226"/>
<path d="M4.78479 5.93361L5.94659 7.09541L4.95647 5.67139C4.91473 5.76781 4.85652 5.85659 4.78479 5.93361Z" fill="#FFD226"/>
<path d="M4.74831 5.97009L4.72244 5.99361L4.69657 6.01419C4.63248 6.06769 4.56193 6.11238 4.48608 6.14648L5.90776 7.1313L4.74831 5.97009Z" fill="#FFD226"/>
<path d="M4.08571 6.2376C4.61957 6.23878 5.05348 5.80722 5.05524 5.27337C5.05642 4.73951 4.62486 4.3056 4.091 4.30384C3.55713 4.30266 3.12322 4.73422 3.12146 5.26808C3.12146 5.26867 3.12146 5.26984 3.12146 5.27043C3.12264 5.80311 3.55302 6.23467 4.08571 6.2376Z" fill="#FFD226" stroke="#AB6D29" stroke-width="0.0504056" stroke-miterlimit="20"/>
<path d="M4.48079 4.83181C4.69892 4.83181 4.74067 4.95646 4.7977 4.88355C4.69481 4.80065 4.5684 4.75185 4.43669 4.74597C4.36673 4.74597 4.14566 4.91236 4.17682 4.93823C4.20798 4.9641 4.26266 4.83181 4.48079 4.83181Z" fill="#AB6D29"/>
<path d="M4.48853 5.1305C4.54321 5.11874 4.5779 5.06465 4.56614 5.00997C4.56261 4.99292 4.55438 4.97705 4.54262 4.96411H4.36565C4.31449 5.02643 4.43679 5.1305 4.48853 5.1305Z" fill="#AB6D29"/>
<path d="M4.74306 5.0523C4.69132 5.02643 4.63135 4.92001 4.48318 4.92001C4.33502 4.92001 4.25682 4.93824 4.24683 5.04231C4.34325 4.95411 4.34325 4.95411 4.48318 4.95411C4.6237 4.95353 4.69661 5.0523 4.74306 5.0523Z" fill="#AB6D29"/>
<path d="M4.27795 5.06817C4.25208 5.10462 4.38437 5.15636 4.48079 5.15636C4.57722 5.15636 4.72773 5.0082 4.66541 5.0523C4.60603 5.09992 4.53136 5.1252 4.45492 5.12226C4.3585 5.12285 4.3144 5.01584 4.27795 5.06817Z" fill="#AB6D29"/>
<path d="M4.43666 5.55145C4.41961 5.50971 4.38199 5.48031 4.33789 5.47325C4.26792 5.47325 4.29379 5.35096 4.21559 5.33273C4.21559 5.36625 4.24146 5.3586 4.25205 5.41093C4.26263 5.46267 4.1715 5.45503 4.15327 5.41093C4.1715 5.4809 4.11976 5.4809 4.07507 5.4809V5.53264C4.1374 5.53264 4.15327 5.49089 4.22559 5.49089C4.30026 5.49266 4.37317 5.51323 4.43666 5.55145Z" fill="#AB6D29"/>
<path d="M4.04163 5.78782L4.08572 5.85779C4.3015 5.85779 4.27269 5.81604 4.54844 5.69669C4.49435 5.72432 4.43497 5.73725 4.37441 5.73549C4.2821 5.77018 4.1845 5.78782 4.08572 5.78723H4.04163V5.78782Z" fill="#AB6D29"/>
<path d="M4.22624 5.63202C4.15628 5.63202 4.13805 5.64789 4.08572 5.64789L4.04163 5.71786H4.08572C4.18215 5.71668 4.27857 5.72315 4.37441 5.73609C4.42027 5.7208 4.4673 5.70845 4.51493 5.69963C4.41733 5.68258 4.3209 5.65965 4.22624 5.63202Z" fill="#AB6D29"/>
<path d="M4.57666 5.12284C4.62252 5.10638 4.64663 5.05582 4.63016 5.00996C4.62134 4.98526 4.60194 4.96527 4.57666 4.95645C4.59489 4.97174 4.66544 5.06052 4.57666 5.12284Z" fill="#AB6D29"/>
<path d="M4.54841 5.69728C4.56664 5.72609 4.57193 5.7308 4.59545 5.77254C4.59545 5.71022 4.56958 5.68435 4.49902 5.63202C4.51372 5.65377 4.52901 5.67435 4.54606 5.69434L4.54841 5.69728Z" fill="#AB6D29"/>
<path d="M3.69057 4.83181C3.90871 4.83181 3.95045 4.9641 3.98161 4.93823C4.01277 4.91236 3.79699 4.75362 3.72174 4.74597C3.59297 4.75362 3.47009 4.80183 3.37073 4.88355C3.43599 4.95646 3.47244 4.83181 3.69057 4.83181Z" fill="#AB6D29"/>
<path d="M3.68297 5.13049C3.74295 5.13049 3.85701 5.02642 3.80527 4.95645H3.63123C3.59008 4.99467 3.58773 5.05876 3.62594 5.09991C3.64064 5.11579 3.66063 5.12696 3.68297 5.13049Z" fill="#AB6D29"/>
<path d="M3.91689 5.05229C3.91689 4.94822 3.82046 4.92999 3.68053 4.92999C3.5406 4.92999 3.47769 5.03641 3.42065 5.06228C3.48063 5.06228 3.53531 4.97409 3.68053 4.97409C3.82575 4.97468 3.82282 4.95645 3.91689 5.05229Z" fill="#AB6D29"/>
<path d="M3.71654 5.12284C3.64011 5.12519 3.56544 5.1005 3.50605 5.05288C3.44608 5.00878 3.59425 5.15694 3.69067 5.15694C3.7871 5.15694 3.91939 5.1052 3.89352 5.06875C3.86765 5.0323 3.81297 5.12284 3.71654 5.12284Z" fill="#AB6D29"/>
<path d="M3.93752 5.49148C4.00748 5.49148 4.02336 5.53323 4.08568 5.53323V5.4762C4.04158 5.4762 3.98926 5.4762 4.00748 5.40623C3.98926 5.45033 3.90871 5.45033 3.90871 5.40623C3.90871 5.36213 3.94516 5.36213 3.94516 5.32803C3.86696 5.34626 3.89342 5.45797 3.82286 5.46855C3.77877 5.47502 3.74232 5.50501 3.72644 5.54675C3.79112 5.50971 3.86343 5.4909 3.93752 5.49148Z" fill="#AB6D29"/>
<path d="M4.0857 5.71786H4.1298L4.0857 5.64789C4.03396 5.64789 4.01573 5.63202 3.94518 5.63202C3.85052 5.65965 3.75409 5.68258 3.65649 5.69963C3.70412 5.70845 3.75115 5.7208 3.79702 5.73609C3.89285 5.72315 3.98928 5.71668 4.0857 5.71786Z" fill="#AB6D29"/>
<path d="M3.62585 5.6973C3.90396 5.81665 3.88573 5.8584 4.08857 5.8584L4.13267 5.78843H4.08799C3.98921 5.78843 3.89161 5.77079 3.7993 5.73669C3.73933 5.73845 3.67936 5.72493 3.62585 5.6973Z" fill="#AB6D29"/>
<path d="M3.623 5.69727H3.63594C3.6524 5.67728 3.66827 5.6567 3.68297 5.63495C3.63006 5.66317 3.59419 5.7155 3.58655 5.77547C3.59948 5.73608 3.60477 5.73608 3.623 5.69727Z" fill="#AB6D29"/>
<path d="M3.59421 5.12284C3.50601 5.06052 3.57598 4.97233 3.59421 4.95645C3.54835 4.97291 3.52424 5.02348 3.5407 5.06934C3.55011 5.09403 3.56951 5.11402 3.59421 5.12284Z" fill="#AB6D29"/>
<path d="M4.08579 5.9648C4.24454 5.9648 4.12989 5.93893 4.08579 5.93893C4.04169 5.93893 3.91705 5.9648 4.08579 5.9648Z" fill="#AB6D29"/>
</svg>
